<?xml version="1.0" standalone="no"?>
<!DOCTYPE svg PUBLIC "-//W3C//DTD SVG 1.1//EN" "http://www.w3.org/Graphics/SVG/1.1/DTD/svg11.dtd" >
<svg>
<metadata>
Created by FontForge 20090914 at Wed Aug 19 10:02:02 2015
 By www-data
&#194;&#169;2013 Optimo.
</metadata>
<defs>
<font id="PxGroteskRegular" horiz-adv-x="1228" >
  <font-face 
    font-family="Px Grotesk Regular"
    font-weight="400"
    font-stretch="normal"
    units-per-em="2048"
    panose-1="2 6 5 3 3 0 0 2 0 4"
    ascent="1649"
    descent="-399"
    x-height="1044"
    cap-height="1393"
    bbox="-47 -398.999 2122 1888"
    underline-thickness="102"
    underline-position="-102"
    unicode-range="U+001D-U+FB02"
  />
<missing-glyph horiz-adv-x="748" 
d="M68 0v1365h544v-1365h-544zM136 68h408v1229h-408v-1229z" />
    <glyph glyph-name="uniFB01" unicode="fi" horiz-adv-x="1245" 
d="M70 887v157h176v349h422v-158h-240v-191h647v-1044h-184v887h-463v-887h-182v887h-176zM891 1208v185h184v-185h-184z" />
    <glyph glyph-name="uniFB02" unicode="fl" horiz-adv-x="1249" 
d="M70 887v157h176v349h829v-1393h-184v1235h-463v-191h219v-157h-219v-887h-182v887h-176z" />
    <glyph glyph-name=".notdef" horiz-adv-x="748" 
d="M68 0v1365h544v-1365h-544zM136 68h408v1229h-408v-1229z" />
    <glyph glyph-name=".null" horiz-adv-x="0" 
 />
    <glyph glyph-name=".null" horiz-adv-x="0" 
 />
    <glyph glyph-name="uni0008" horiz-adv-x="0" 
 />
    <glyph glyph-name="space" unicode=" " horiz-adv-x="520" 
 />
    <glyph glyph-name="exclam" unicode="!" horiz-adv-x="569" 
d="M172 0v225h225v-225h-225zM193 670v723h184v-723l-41 -305h-103z" />
    <glyph glyph-name="quotedbl" unicode="&#x22;" horiz-adv-x="790" 
d="M162 887v536h155v-536h-155zM473 887v536h156v-536h-156z" />
    <glyph glyph-name="numbersign" unicode="#" horiz-adv-x="1259" 
d="M113 344v148h213l59 407h-227v145h248l51 349h153l-51 -349h236l51 349h153l-51 -349h201v-145h-221l-60 -407h232v-148h-254l-49 -344h-154l49 344h-235l-49 -344h-154l49 344h-190zM481 492h236l55 407h-235z" />
    <glyph glyph-name="dollar" unicode="$" horiz-adv-x="1187" 
d="M94 406l185.001 -0.000976562c6.66699 -80.667 32.167 -142.5 76.5 -185.5s99.166 -70.167 164.499 -81.5v496l-63 16c-102.667 27.333 -182.334 74.833 -239.001 142.5s-85 152.834 -85 255.501c0 48 10.333 93.333 31 136s48.334 80.5 83.001 113.5s75.5 60 122.5 81
s97.167 34.167 150.5 39.5v168h135v-170c50.667 -6.66699 98.5 -19.5 143.5 -38.5s85 -45 120 -78s63.333 -73.333 85 -121s34.5 -102.834 38.5 -165.501h-184c-6.66699 78 -29.5 134.333 -68.5 169s-83.833 56.667 -134.5 66v-463l84 -20
c50.667 -12 97.5 -28.667 140.5 -50s80.5 -48 112.5 -80s57 -69.833 75 -113.5s27 -94.834 27 -153.501s-12 -111.667 -36 -159s-55.833 -87.666 -95.5 -120.999s-86.167 -60.333 -139.5 -81s-109.333 -33 -168 -37v-166h-135v170c-56 5.33301 -108.5 18.333 -157.5 39
s-92.667 48.834 -131 84.501s-69.5 78.667 -93.5 129s-38.667 109.833 -44 178.5zM317.001 1057c0 -116 67.667 -194.667 203 -236v432c-54.667 -9.33301 -102.167 -30.333 -142.5 -63s-60.5 -77 -60.5 -133zM655.001 136.999c69.333 9.33301 128.333 33.167 177 71.5
s73 90.5 73 156.5c0 118.667 -71.667 195 -215 229l-35 8v-465z" />
    <glyph glyph-name="percent" unicode="%" horiz-adv-x="1652" 
d="M96 1034c0 53.333 4.83301 102.833 14.5 148.5s25.334 85.334 47.001 119.001s50.667 60 87 79s81.166 28.5 134.499 28.5s98 -9.5 134 -28.5s65 -45.333 87 -79s37.833 -73.334 47.5 -119.001s14.5 -95.167 14.5 -148.5s-4.83301 -102.833 -14.5 -148.5
s-25.5 -85.167 -47.5 -118.5s-51 -59.666 -87 -78.999s-80.667 -29 -134 -29s-98.166 9.66699 -134.499 29s-65.333 45.666 -87 78.999s-37.334 72.833 -47.001 118.5s-14.5 95.167 -14.5 148.5zM250 899c0 -40.667 11.333 -71.667 34 -93s54.334 -32 95.001 -32
s72.334 10.667 95.001 32s34 52.333 34 93v270c0 40.667 -11.333 71.667 -34 93s-54.334 32 -95.001 32s-72.334 -10.5 -95.001 -31.5s-34 -52.167 -34 -93.5v-270zM313 0l873 1393h155l-872 -1393h-156zM993 358c0 53.333 4.83301 102.833 14.5 148.5
s25.334 85.334 47.001 119.001s50.667 60 87 79s81.166 28.5 134.499 28.5s98 -9.5 134 -28.5s65 -45.333 87 -79s37.833 -73.334 47.5 -119.001s14.5 -95.167 14.5 -148.5s-4.83301 -102.833 -14.5 -148.5s-25.5 -85.167 -47.5 -118.5s-51 -59.5 -87 -78.5
s-80.667 -28.5 -134 -28.5s-98.166 9.5 -134.499 28.5s-65.333 45.167 -87 78.5s-37.334 73 -47.001 119s-14.5 95.333 -14.5 148zM1147 223c0 -40.667 11.333 -71.667 34 -93s54.334 -32 95.001 -32s72.334 10.667 95.001 32s34 52.333 34 93v271
c0 40.667 -11.333 71.5 -34 92.5s-54.334 31.5 -95.001 31.5s-72.334 -10.5 -95.001 -31.5s-34 -51.833 -34 -92.5v-271z" />
    <glyph glyph-name="ampersand" unicode="&#x26;" horiz-adv-x="1263" 
d="M119 344c0 80.667 16.6689 148.33 50.002 202.997s78.666 103.667 135.999 147l98 76c-58.667 70.667 -104.334 131.667 -137.001 183s-49 105 -49 161c0 44 8.83301 84.667 26.5 122s42.334 70 74.001 98s69 49.833 112 65.5s89.5 23.5 139.5 23.5
c106.667 0 189.667 -27.167 249 -81.5s89 -127.5 89 -219.5c0 -69.333 -23.833 -135.166 -71.5 -197.499s-111.167 -122.833 -190.5 -181.5l213 -282h4v282h178v-507l185 -236h-219l-88 113c-52 -45.333 -108.167 -79.666 -168.5 -102.999s-133.5 -35 -219.5 -35
c-128.667 0 -229.334 31.833 -302.001 95.5s-109 154.834 -109 273.501zM313.002 294.996c0 -28.667 6.16602 -53.334 18.499 -74.001s28.833 -37.667 49.5 -51s43.834 -23.5 69.501 -30.5s51.5 -10.5 77.5 -10.5c60 0 113 7.83301 159 23.5s88.667 44.834 128 87.501
l-307 397l-119 -92c-22 -16.667 -40.167 -34.5 -54.5 -53.5s-21.5 -44.167 -21.5 -75.5v-121zM401.001 1126c0 -39.333 13.834 -78.6689 41.501 -118.002s61.167 -82.333 100.5 -129c53.333 40.667 96.666 80.5 129.999 119.5s50 84.5 50 136.5
c0 40.667 -13.667 73.334 -41 98.001s-66.333 37 -117 37c-48 0 -87.333 -13.667 -118 -41s-46 -61.666 -46 -102.999z" />
    <glyph glyph-name="quotesingle" unicode="'" horiz-adv-x="479" 
d="M162 887v536h155v-536h-155z" />
    <glyph glyph-name="parenleft" unicode="(" horiz-adv-x="645" 
d="M117 559c0 101.333 7.16895 194.33 21.502 278.997s34.833 163.5 61.5 236.5s58.667 141.5 96 205.5s79.333 126 126 186h164c-92.667 -125.333 -163.334 -243.666 -212.001 -354.999s-73 -223.666 -73 -336.999v-430c0 -113.333 25.667 -228 77 -344
s120.666 -232 207.999 -348h-164c-46.667 60 -88.667 122 -126 186s-69.333 132.667 -96 206s-47.167 152.333 -61.5 237s-21.5 177.334 -21.5 278.001z" />
    <glyph glyph-name="parenright" unicode=")" horiz-adv-x="645" 
d="M59 -348c87.333 116 156.666 232 207.999 348s77 230.667 77 344v430c0 113.333 -24.167 225.666 -72.5 336.999s-119.166 229.666 -212.499 354.999h164c46.667 -60 88.834 -122 126.501 -186s69.667 -132.5 96 -205.5s46.666 -151.833 60.999 -236.5
s21.5 -177.667 21.5 -279s-7.16699 -194.166 -21.5 -278.499s-34.666 -163.166 -60.999 -236.499s-58.333 -142 -96 -206s-79.834 -126 -126.501 -186h-164z" />
    <glyph glyph-name="asterisk" unicode="*" horiz-adv-x="937" 
d="M141 915l224 129l-224 130l52 90l225 -131v260h102v-260l225 131l52 -90l-226 -130l226 -129l-52 -90l-225 129v-258h-102v258l-225 -129z" />
    <glyph glyph-name="plus" unicode="+" 
d="M92 449v147h445v448h155v-448h445v-147h-445v-449h-155v449h-445z" />
    <glyph glyph-name="comma" unicode="," horiz-adv-x="536" 
d="M156 0v225h225v-225l-127 -225h-98l120 225h-120z" />
    <glyph glyph-name="hyphen" unicode="-" horiz-adv-x="884" 
d="M156 471v168h573v-168h-573z" />
    <glyph glyph-name="period" unicode="." horiz-adv-x="536" 
d="M156 0v225h225v-225h-225z" />
    <glyph glyph-name="slash" unicode="/" horiz-adv-x="933" 
d="M53 0l639 1393h189l-639 -1393h-189z" />
    <glyph glyph-name="zero" unicode="0" 
d="M121 696c0 104 7.5 200.667 22.5 290s40.833 166.166 77.5 230.499s86.834 114.833 150.501 151.5s144.5 55 242.5 55s178.833 -18.333 242.5 -55s114 -87.167 151 -151.5s63 -141.166 78 -230.499s22.5 -186 22.5 -290c0 -105.333 -7.5 -202.333 -22.5 -291
s-41 -165 -78 -229s-87.167 -114.5 -150.5 -151.5s-144.333 -55.5 -243 -55.5c-98 0 -178.833 18.5 -242.5 55.5s-113.834 87.5 -150.501 151.5s-62.5 140.5 -77.5 229.5s-22.5 185.833 -22.5 290.5zM326 424c0 -92.667 26.833 -164.334 80.5 -215.001
s122.834 -76 207.501 -76s154 25.333 208 76s81 122.334 81 215.001v545c0 92.667 -27 164.334 -81 215.001s-123.333 76 -208 76s-153.834 -25.333 -207.501 -76s-80.5 -122.334 -80.5 -215.001v-545z" />
    <glyph glyph-name="one" unicode="1" 
d="M217 0v162h358v907h-358v162h358v162h185v-1231h327v-162h-870z" />
    <glyph glyph-name="two" unicode="2" 
d="M147 0l0.00292969 162l558 547c27.333 27.333 51.5 52.833 72.5 76.5s38.667 47.167 53 70.5s25.166 47.666 32.499 72.999s11 53.666 11 84.999c0 78 -23.5 138.5 -70.5 181.5s-107.833 64.5 -182.5 64.5c-82 0 -149 -23 -201 -69s-78 -115.333 -78 -208h-188
c0 69.333 11.833 131 35.5 185s56.667 100.167 99 138.5s92.166 67.333 149.499 87s119.666 29.5 186.999 29.5c66.667 0 127 -9.5 181 -28.5s100 -46.667 138 -83s67.333 -79.666 88 -129.999s31 -106.166 31 -167.499c0 -45.333 -6.16699 -87.833 -18.5 -127.5
s-28.333 -76.167 -48 -109.5s-42.5 -65 -68.5 -95s-53.333 -58 -82 -84l-457 -432v-4h694v-162h-936z" />
    <glyph glyph-name="three" unicode="3" 
d="M119 406l188.004 0.000976562c6.66699 -96.667 37.334 -166.334 92.001 -209.001s123 -64 205 -64c42 0 80.833 5.83301 116.5 17.5s66.167 27 91.5 46s45.166 41.167 59.499 66.5s21.5 51.666 21.5 78.999v139c0 44 -13.333 80.333 -40 109s-64.667 43 -114 43h-317v162
h291c49.333 0 87.166 14 113.499 42s39.5 63.667 39.5 107v127c0 30 -6.83301 57 -20.5 81s-32 43.833 -55 59.5s-49.833 27.667 -80.5 36s-63.334 12.5 -98.001 12.5c-83.333 0 -147.833 -21.667 -193.5 -65s-71.167 -99.666 -76.5 -168.999h-188
c0 50.667 10.5 99.834 31.5 147.501s51 90 90 127s86.833 66.667 143.5 89s121 33.5 193 33.5c69.333 0 132.166 -9.16699 188.499 -27.5s104.333 -44.166 144 -77.499s70 -73.333 91 -120s31.5 -97 31.5 -151c0 -84.667 -16.667 -153.334 -50 -206.001
s-75.333 -92.667 -126 -120c64 -28.667 113.833 -69.334 149.5 -122.001s53.5 -122.667 53.5 -210c0 -66.667 -12.333 -126 -37 -178s-58.5 -96 -101.5 -132s-94.5 -63.333 -154.5 -82s-125.667 -28 -197 -28c-68 0 -131.333 9 -190 27s-109.834 45 -153.501 81
s-78.167 81.333 -103.5 136s-38 119 -38 193z" />
    <glyph glyph-name="four" unicode="4" 
d="M111 336v162l612 895h186v-895h201v-162h-201v-336h-184v336h-614zM295 498h430v630z" />
    <glyph glyph-name="five" unicode="5" 
d="M135 385l189.005 0.00292969c9.33301 -86 38.5 -149.5 87.5 -190.5s114.5 -61.5 196.5 -61.5c83.333 0 152 20.833 206 62.5s81 100.167 81 175.5v182c0 74 -26 129.667 -78 167s-120.333 56 -205 56c-64 0 -117.5 -14.667 -160.5 -44s-78.167 -70 -105.5 -122h-188
l53 783h805v-162h-635l-33 -432c31.333 44 73.666 77.833 126.999 101.5s110 35.5 170 35.5c69.333 0 132.166 -11.333 188.499 -34s104.166 -54.834 143.499 -96.501s69.666 -91.834 90.999 -150.501s32 -123.334 32 -194.001c0 -74 -11.333 -141.333 -34 -202
s-55.167 -112.5 -97.5 -155.5s-93.5 -76.167 -153.5 -99.5s-127 -35 -201 -35c-144.667 0 -257.834 36.167 -339.501 108.5s-128.167 174.833 -139.5 307.5z" />
    <glyph glyph-name="six" unicode="6" 
d="M123 662c0 114.667 9.16895 219.003 27.502 313.003s48 174.167 89 240.5s93.333 117.5 157 153.5s140.5 54 230.5 54c146 0 255.167 -32.667 327.5 -98s114.5 -158 126.5 -278h-188c-8 68 -33.833 120.5 -77.5 157.5s-106.5 55.5 -188.5 55.5
c-92.667 0 -165.667 -32.167 -219 -96.5s-80 -149.166 -80 -254.499v-137c38 48 85.333 83.833 142 107.5s117.667 35.5 183 35.5c74 0 139.667 -10.833 197 -32.5s106.166 -52.334 146.499 -92.001s71 -87.5 92 -143.5s31.5 -118 31.5 -186
c0 -58.667 -10.167 -117.334 -30.5 -176.001s-51.333 -111.334 -93 -158.001s-93.5 -84.667 -155.5 -114s-134.667 -44 -218 -44c-92.667 0 -170.834 14.667 -234.501 44s-115 73.333 -154 132s-67.333 131.167 -85 217.5s-26.5 186.166 -26.5 299.499zM328.002 397.003
c0 -36.667 7.16797 -71 21.501 -103s34.5 -60 60.5 -84s57 -42.833 93 -56.5s76 -20.5 120 -20.5s84 6.83301 120 20.5s66.5 32.5 91.5 56.5s44.667 52 59 84s21.5 66.333 21.5 103v115c0 74 -26.167 133.167 -78.5 177.5s-122.833 66.5 -211.5 66.5
s-160.334 -22.167 -215.001 -66.5s-82 -103.5 -82 -177.5v-115z" />
    <glyph glyph-name="seven" unicode="7" 
d="M162 1231v162h928v-160l-576 -1233h-209l586 1231h-729z" />
    <glyph glyph-name="eight" unicode="8" 
d="M113 373c0 86 22.498 159.001 67.498 219.001s107.167 104.333 186.5 133c-142 61.333 -213 168.666 -213 321.999c0 58.667 11.833 111.167 35.5 157.5s56.334 85.833 98.001 118.5s90.5 57.5 146.5 74.5s116 25.5 180 25.5s124.167 -8.5 180.5 -25.5
s105.333 -41.833 147 -74.5s74.334 -72.167 98.001 -118.5s35.5 -98.833 35.5 -157.5c0 -152.667 -71 -260 -213 -322c79.333 -28.667 141.5 -73 186.5 -133s67.5 -133 67.5 -219c0 -69.333 -13.333 -129.333 -40 -180s-62.5 -92.5 -107.5 -125.5s-98 -57.667 -159 -74
s-126.167 -24.5 -195.5 -24.5s-134.333 8.16699 -195 24.5s-113.5 41 -158.5 74s-80.833 74.667 -107.5 125s-40 110.5 -40 180.5zM316.998 332.001c0 -61.333 27.001 -109.833 81.001 -145.5s126 -53.5 216 -53.5s162 17.833 216 53.5s81 84.167 81 145.5v106
c0 61.333 -26.833 110.166 -80.5 146.499s-125.834 54.5 -216.501 54.5c-90 0 -162 -18.167 -216 -54.5s-81 -85.166 -81 -146.499v-106zM353.999 985.001c0 -31.333 6.83301 -58.666 20.5 -81.999s32.167 -42.5 55.5 -57.5s51 -26.5 83 -34.5s65.667 -12 101 -12
s68.833 4 100.5 12s59.5 19.5 83.5 34.5s42.667 34.167 56 57.5s20 50.666 20 81.999v88c0 30 -6.66699 57 -20 81s-32 43.5 -56 58.5s-51.667 26.667 -83 35s-65 12.5 -101 12.5c-35.333 0 -69 -4.16699 -101 -12.5s-59.667 -20 -83 -35s-41.833 -34.5 -55.5 -58.5
s-20.5 -51 -20.5 -81v-88z" />
    <glyph glyph-name="nine" unicode="9" 
d="M106 932c0 58.667 10.332 117.332 30.999 175.999s51.834 111.167 93.501 157.5s93.5 84.166 155.5 113.499s134.667 44 218 44c91.333 0 169.166 -14.667 233.499 -44s116 -73.333 155 -132s67.333 -131 85 -217s26.5 -185.667 26.5 -299
c0 -116 -9.16699 -221.167 -27.5 -315.5s-48 -174.5 -89 -240.5s-93.333 -116.833 -157 -152.5s-140.5 -53.5 -230.5 -53.5c-146 0 -255.167 32.833 -327.5 98.5s-114.833 158.5 -127.5 278.5h189c8 -68 33.833 -120.5 77.5 -157.5s106.5 -55.5 188.5 -55.5
c92.667 0 165.667 32.167 219 96.5s80 148.833 80 253.5v138c-38 -48 -85.333 -84 -142 -108s-118 -36 -184 -36c-74 0 -139.5 11 -196.5 33s-105.667 52.833 -146 92.5s-71.166 87.334 -92.499 143.001s-32 117.834 -32 186.501zM310.999 880.998
c0 -74 26.3311 -133.167 78.998 -177.5s123.334 -66.5 212.001 -66.5s160.334 22.167 215.001 66.5s82 103.5 82 177.5v114c0 36.667 -7.16699 71.167 -21.5 103.5s-34.5 60.5 -60.5 84.5s-57 42.833 -93 56.5s-76 20.5 -120 20.5s-84 -6.83301 -120 -20.5
s-67 -32.5 -93 -56.5s-45.833 -52 -59.5 -84s-20.5 -66.667 -20.5 -104v-114z" />
    <glyph glyph-name="colon" unicode=":" horiz-adv-x="536" 
d="M156 0v225h225v-225h-225zM156 819v225h225v-225h-225z" />
    <glyph glyph-name="semicolon" unicode=";" horiz-adv-x="536" 
d="M156 0v225h225v-225l-127 -225h-98l120 225h-120zM156 819v225h225v-225h-225z" />
    <glyph glyph-name="less" unicode="&#x3c;" 
d="M74 449v147l1044 448v-159l-844 -363l844 -362v-160z" />
    <glyph glyph-name="equal" unicode="=" 
d="M92 238v147h1045v-147h-1045zM92 659v148h1045v-148h-1045z" />
    <glyph glyph-name="greater" unicode="&#x3e;" 
d="M111 0v160l843 362l-843 363v159l1044 -448v-147z" />
    <glyph glyph-name="question" unicode="?" horiz-adv-x="1030" 
d="M78 1026c4 61.333 18.668 116.669 44.001 166.002s58.166 91 98.499 125s86.333 60.167 138 78.5s106.834 27.5 165.501 27.5c60 0 115.667 -8.83301 167 -26.5s95.5 -42.834 132.5 -75.501s66 -71.834 87 -117.501s31.5 -96.5 31.5 -152.5
c0 -45.333 -4.5 -85.333 -13.5 -120s-21.333 -66 -37 -94s-34 -53.667 -55 -77s-43.167 -45.333 -66.5 -66l-80 -71.5c-23.333 -20.333 -43.166 -40 -59.499 -59s-28.833 -39.5 -37.5 -61.5s-13 -47.333 -13 -76v-61h-185v61c0 39.333 4.16699 74 12.5 104
s20.666 58 36.999 84s37.166 51 62.499 75s54.333 49.667 87 77c57.333 46.667 99 90.834 125 132.501s39 91.167 39 148.5c0 69.333 -22.167 123.166 -66.5 161.499s-100.833 57.5 -169.5 57.5c-74 0 -134.167 -20.5 -180.5 -61.5s-72.833 -100.5 -79.5 -178.5h-184z
M375.001 0.00292969v225h225v-225h-225z" />
    <glyph glyph-name="at" unicode="@" horiz-adv-x="1718" 
d="M213 -158v1360h1290v-1044h-921v729h553v-572h184v729h-922v-1044h738v-158h-922zM766 315h184v414h-184v-414z" />
    <glyph glyph-name="A" unicode="A" horiz-adv-x="1292" 
d="M55 0l482 1393h217l483 -1393h-205l-114 344h-547l-115 -344h-201zM422 504h444l-217 672h-8z" />
    <glyph glyph-name="B" unicode="B" horiz-adv-x="1327" 
d="M188 0l-0.000976562 1393h543c69.333 0 129.333 -4.83301 180 -14.5s96 -28.834 136 -57.501c80 -56.667 120 -144.334 120 -263.001c0 -81.333 -18.833 -151 -56.5 -209s-89.167 -99.333 -154.5 -124c74 -20.667 132.833 -58 176.5 -112s65.5 -123 65.5 -207
c0 -135.333 -35.333 -236 -106 -302c-39.333 -35.333 -88.166 -61.5 -146.499 -78.5s-126.5 -25.5 -204.5 -25.5h-553zM382.999 174.002h438.001c52 0 93.667 12.333 125 37s47 63 47 115v168c0 46.667 -14.333 81.5 -43 104.5s-67.334 34.5 -116.001 34.5h-451v-459z
M383 807.002h428c52 0 90.333 13.667 115 41s37 62.666 37 105.999v125c0 92.667 -50.667 139.334 -152 140.001h-428v-412z" />
    <glyph glyph-name="C" unicode="C" horiz-adv-x="1314" 
d="M125 684c0 113.333 11.6689 215.664 35.002 306.997s58.833 169.166 106.5 233.499s107.667 113.5 180 147.5s156.833 51 253.5 51c66.667 0 129.167 -9.83301 187.5 -29.5s109.333 -48 153 -85s78.834 -81.667 105.501 -134s42 -111.5 46 -177.5h-195
c-9.33301 82 -41.333 145.167 -96 189.5s-127.667 66.5 -219 66.5c-49.333 0 -94.833 -8.5 -136.5 -25.5s-77.834 -40.5 -108.501 -70.5s-54.5 -65.833 -71.5 -107.5s-25.5 -87.834 -25.5 -138.501v-430c0 -49.333 9.16699 -94.666 27.5 -135.999
s43.666 -77.5 75.999 -108.5s70 -55 113 -72s88.833 -25.5 137.5 -25.5c92.667 0 167.834 20.833 225.501 62.5s91.167 109.834 100.5 204.501h194c-4 -65.333 -20 -125.166 -48 -179.499s-64.833 -100.166 -110.5 -137.499s-99.334 -66.666 -161.001 -87.999
s-127.834 -32 -198.501 -32c-92.667 0 -174.5 16.833 -245.5 50.5s-130.333 81.834 -178 144.501s-84.167 137.667 -109.5 225s-38 185.666 -38 294.999z" />
    <glyph glyph-name="D" unicode="D" horiz-adv-x="1366" 
d="M188 0v1393h451c210 0 362.167 -57.667 456.5 -173s141.5 -290 141.5 -524c0 -233.333 -47.167 -407.666 -141.5 -522.999s-246.5 -173 -456.5 -173h-451zM383 173.999l256 -0.00195312c131.333 0 228 27.333 290 82s93 133.334 93 236.001v409
c0 102.667 -31 181.334 -93 236.001s-158.667 82 -290 82h-256v-1045z" />
    <glyph glyph-name="E" unicode="E" horiz-adv-x="1232" 
d="M188 0v1393h924v-174h-729v-422h635v-174h-635v-449h729v-174h-924z" />
    <glyph glyph-name="F" unicode="F" horiz-adv-x="1136" 
d="M188 0v1393h854v-174h-659v-422h610v-174h-610v-623h-195z" />
    <glyph glyph-name="G" unicode="G" horiz-adv-x="1376" 
d="M125 684c0 116 12.0039 219.835 36.0039 311.502s59.833 169.167 107.5 232.5s108.334 111.666 182.001 144.999s160.5 50 260.5 50c69.333 0 133.666 -9.83301 192.999 -29.5s110.833 -48 154.5 -85s79.167 -81.667 106.5 -134s43 -111.5 47 -177.5h-194
c-9.33301 82 -41.666 145.167 -96.999 189.5s-131.666 66.5 -228.999 66.5c-52 0 -99.5 -8.5 -142.5 -25.5s-79.833 -40.5 -110.5 -70.5s-54.834 -65.833 -72.501 -107.5s-26.5 -87.834 -26.5 -138.501v-430c0 -49.333 9.16699 -94.666 27.5 -135.999
s43.666 -77.5 75.999 -108.5s70.666 -55 114.999 -72s92.166 -25.5 143.499 -25.5c108 0 191.333 28.667 250 86s88 140.666 88 249.999v94h-315v174h510v-743h-186l-9 147c-35.333 -53.333 -81 -96.333 -137 -129s-128.333 -49 -217 -49s-167.834 16.833 -237.501 50.5
s-128.334 81.5 -176.001 143.5s-84.167 137 -109.5 225s-38 186.667 -38 296z" />
    <glyph glyph-name="H" unicode="H" horiz-adv-x="1423" 
d="M188 0v1393h195v-590h657v590h195v-1393h-195v629h-657v-629h-195z" />
    <glyph glyph-name="I" unicode="I" horiz-adv-x="571" 
d="M188 0v1393h195v-1393h-195z" />
    <glyph glyph-name="J" unicode="J" horiz-adv-x="870" 
d="M39 0v174h448v1219h195v-1393h-643z" />
    <glyph glyph-name="K" unicode="K" horiz-adv-x="1288" 
d="M188 0v1393h195v-1393h-195zM387 743l578 650h237l-588 -650l639 -743h-237z" />
    <glyph glyph-name="L" unicode="L" horiz-adv-x="1050" 
d="M188 0v1393h195v-1219h631v-174h-826z" />
    <glyph glyph-name="M" unicode="M" horiz-adv-x="1705" 
d="M188 0v1393h308l356 -1076h8l354 1076h304v-1393h-183v1186h-8l-395 -1186h-156l-397 1186h-8v-1186h-183z" />
    <glyph glyph-name="N" unicode="N" horiz-adv-x="1423" 
d="M188 0v1393h275l575 -1157h9v1157h188v-1393h-274l-576 1163h-8v-1163h-189z" />
    <glyph glyph-name="O" unicode="O" horiz-adv-x="1445" 
d="M125 696c0 109.333 11.667 208.666 35 297.999s59.166 165.833 107.499 229.5s110 112.834 185 147.501s165.167 52 270.5 52s195.5 -17.333 270.5 -52s136.667 -83.834 185 -147.501s84.166 -140.167 107.499 -229.5s35 -188.666 35 -297.999
s-11.667 -208.666 -35 -297.999s-59.166 -165.666 -107.499 -228.999s-110 -112.5 -185 -147.5s-165.167 -52.5 -270.5 -52.5s-195.5 17.5 -270.5 52.5s-136.667 84.167 -185 147.5s-84.166 139.666 -107.499 228.999s-35 188.666 -35 297.999zM340 481
c0 -53.333 9.83301 -100.833 29.5 -142.5s47 -77.5 82 -107.5s75.667 -52.833 122 -68.5s96.166 -23.5 149.499 -23.5s103.166 7.83301 149.499 23.5s87 38.5 122 68.5s62.333 65.833 82 107.5s29.5 89.167 29.5 142.5v430c0 53.333 -9.83301 100.833 -29.5 142.5
s-47 77.5 -82 107.5s-75.667 52.833 -122 68.5s-96.166 23.5 -149.499 23.5s-103.166 -7.83301 -149.499 -23.5s-87 -38.5 -122 -68.5s-62.333 -65.833 -82 -107.5s-29.5 -89.167 -29.5 -142.5v-430z" />
    <glyph glyph-name="P" unicode="P" horiz-adv-x="1234" 
d="M188 0l0.00195312 1393h527c83.333 0 151.166 -7.83301 203.499 -23.5s97.166 -42.834 134.499 -81.501c35.333 -36.667 60.5 -82.667 75.5 -138s22.5 -115.666 22.5 -180.999c0 -64 -9.16699 -124.5 -27.5 -181.5s-47.5 -105.167 -87.5 -144.5
c-76.667 -75.333 -183 -113 -319 -113h-334v-530h-195zM383.002 705h408c46.667 0 84.167 15 112.5 45s42.5 68 42.5 114v203c0 46.667 -13.667 83.667 -41 111s-65.333 41 -114 41h-408v-514z" />
    <glyph glyph-name="Q" unicode="Q" horiz-adv-x="1458" 
d="M125 696c0 110.667 11.667 210.669 35 300.002s59.166 165.833 107.499 229.5s110 112.5 185 146.5s165.167 51 270.5 51s195.5 -17 270.5 -51s136.667 -82.833 185 -146.5s84.166 -140.167 107.499 -229.5s35 -189.333 35 -300c0 -98 -9.16699 -188.333 -27.5 -271
s-48.166 -156 -89.499 -220l211 -205l-127 -127l-205 199c-90 -68 -210 -102.333 -360 -103c-105.333 0 -195.5 17.167 -270.5 51.5s-136.667 83.166 -185 146.499s-84.166 139.666 -107.499 228.999s-35 189.333 -35 300zM340 481.002
c0 -53.333 9.83301 -100.833 29.5 -142.5s47 -77.5 82 -107.5s75.667 -52.833 122 -68.5s96.166 -23.5 149.499 -23.5s103.166 7.83301 149.499 23.5s87 38.5 122 68.5s62.333 65.833 82 107.5s29.5 89.167 29.5 142.5v430c0 53.333 -9.83301 100.833 -29.5 142.5
s-47 77.5 -82 107.5s-75.667 52.833 -122 68.5s-96.166 23.5 -149.499 23.5s-103.166 -7.83301 -149.499 -23.5s-87 -38.5 -122 -68.5s-62.333 -65.833 -82 -107.5s-29.5 -89.167 -29.5 -142.5v-430z" />
    <glyph glyph-name="R" unicode="R" horiz-adv-x="1275" 
d="M188 0l-0.00390625 1393h525c72.667 0 136.834 -8.33301 192.501 -25s101.834 -42 138.501 -76s63.334 -75.833 80.001 -125.5s25 -107.5 25 -173.5c0 -61.333 -7.83301 -116.833 -23.5 -166.5s-41.167 -92.5 -76.5 -128.5
c-27.333 -27.333 -59.166 -49.833 -95.499 -67.5s-81.833 -29.834 -136.5 -36.501l344 -594h-223l-326 588h-229v-588h-195zM382.996 754.001l401 0.000976562c52 0 91.667 15.667 119 47s41 68.666 41 111.999v154c0 48 -14.333 85.333 -43 112s-67.667 40 -117 40h-401
v-465z" />
    <glyph glyph-name="S" unicode="S" horiz-adv-x="1261" 
d="M96 406l195.003 -0.00195312c10.667 -94 47.5 -162 110.5 -204s140.833 -63 233.5 -63c46.667 0 89.667 4.83301 129 14.5s73.666 24 102.999 43s52.666 42.5 69.999 70.5s26 60.667 26 98c0 60 -16.833 107 -50.5 141s-87.167 61.333 -160.5 82l-273 76
c-114.667 31.333 -199.334 78.666 -254.001 141.999s-82 146.333 -82 249c0 52 11.333 100.5 34 145.5s55.167 83.833 97.5 116.5s92.5 58.5 150.5 77.5s123.333 28.5 196 28.5c66.667 0 129 -7.83301 187 -23.5s109.167 -40.167 153.5 -73.5s80.5 -76 108.5 -128
s45.333 -113.333 52 -184h-194c-4 46.667 -15.333 85.334 -34 116.001s-42 55.167 -70 73.5s-59.333 31.166 -94 38.499s-71 11 -109 11c-88.667 0 -158.667 -17.667 -210 -53s-77 -83.666 -77 -144.999c0 -65.333 17.667 -113.833 53 -145.5s92 -58.5 170 -80.5l223 -61
c60 -16.667 113.667 -35.834 161 -57.501s87 -48.5 119 -80.5s56.167 -69.167 72.5 -111.5s24.5 -92.166 24.5 -149.499c0 -61.333 -14 -116.666 -42 -165.999s-65.5 -91.333 -112.5 -126s-102 -61.334 -165 -80.001s-129.167 -28 -198.5 -28s-135.5 8.5 -198.5 25.5
s-119 43.333 -168 79s-89.333 80.834 -121 135.501s-50.167 120.334 -55.5 197.001z" />
    <glyph glyph-name="T" unicode="T" horiz-adv-x="1107" 
d="M41 1219v174h1026v-174h-416v-1219h-194v1219h-416z" />
    <glyph glyph-name="U" unicode="U" horiz-adv-x="1400" 
d="M176 496l0.00292969 897.001h195v-912c0 -106.667 28.333 -190.334 85 -251.001s138 -91 244 -91c106.667 0 188.667 30.5 246 91.5s86 144.5 86 250.5v912h193v-897c0 -82 -12.333 -155.5 -37 -220.5s-59.834 -120 -105.501 -165s-101 -79.833 -166 -104.5
s-137.167 -37 -216.5 -37s-151.333 12.333 -216 37s-119.834 59.5 -165.501 104.5s-80.834 100 -105.501 165s-37 138.5 -37 220.5z" />
    <glyph glyph-name="V" unicode="V" horiz-adv-x="1261" 
d="M72 1393h209l346 -1164h8l346 1164h209l-451 -1393h-217z" />
    <glyph glyph-name="W" unicode="W" horiz-adv-x="1908" 
d="M86 1393h207l272 -1174h8l273 1174h217l272 -1174h8l273 1174h207l-361 -1393h-243l-261 1120h-8l-260 -1120h-244z" />
    <glyph glyph-name="X" unicode="X" horiz-adv-x="1200" 
d="M53 0l445 715l-420 678h213l309 -514l315 514h213l-423 -678l440 -715h-217l-328 545l-332 -545h-215z" />
    <glyph glyph-name="Y" unicode="Y" horiz-adv-x="1206" 
d="M43 1393h213l348 -648l354 648h207l-465 -840v-553h-194v555z" />
    <glyph glyph-name="Z" unicode="Z" horiz-adv-x="1214" 
d="M100 0v174l779 1045h-746v174h967v-174l-776 -1045h774v-174h-998z" />
    <glyph glyph-name="bracketleft" unicode="[" horiz-adv-x="710" 
d="M184 -348v1814h430v-151h-256v-1512h256v-151h-430z" />
    <glyph glyph-name="backslash" unicode="\" horiz-adv-x="933" 
d="M53 1393h189l639 -1393h-189z" />
    <glyph glyph-name="bracketright" unicode="]" horiz-adv-x="710" 
d="M96 -197h256v1512h-256v151h430v-1814h-430v151z" />
    <glyph glyph-name="asciicircum" unicode="^" 
d="M113 598l424 795h155l424 -795h-172l-332 619l-325 -619h-174z" />
    <glyph glyph-name="underscore" unicode="_" horiz-adv-x="1269" 
d="M154 -113h962v-123h-962v123z" />
    <glyph glyph-name="grave" unicode="`" horiz-adv-x="614" 
d="M14 1423h215l162 -249h-160z" />
    <glyph glyph-name="a" unicode="a" horiz-adv-x="1128" 
d="M104 287c0 82 26 152.33 78 210.997s130 92.667 234 102l340 31v84c0 40.667 -5.16699 74.334 -15.5 101.001s-25 47.834 -44 63.501s-41.833 26.667 -68.5 33s-56.334 9.5 -89.001 9.5c-65.333 0 -117.5 -14.667 -156.5 -44s-58.5 -77.666 -58.5 -144.999h-185
c0 49.333 10.667 94.5 32 135.5s50 76.5 86 106.5s78.333 53.167 127 69.5s101 24.5 157 24.5s108.167 -7.16699 156.5 -21.5s90.333 -35.833 126 -64.5s63.334 -65.5 83.001 -110.5s29.5 -98.167 29.5 -159.5v-555h156v-158h-312l-4 193h-8
c-28.667 -74 -71 -128.833 -127 -164.5s-123 -53.5 -201 -53.5c-52 0 -99 8 -141 24s-78.333 39.667 -109 71c-27.333 27.333 -48.5 60 -63.5 98s-22.5 77.667 -22.5 119zM299 261.997c0 -48 16.667 -83.167 50 -105.5s79.333 -33.5 138 -33.5c83.333 0 149 29.667 197 89
s72 136 72 230v47l-371 -34c-38 -2.66699 -61.833 -12.667 -71.5 -30s-14.5 -41 -14.5 -71v-92z" />
    <glyph glyph-name="b" unicode="b" horiz-adv-x="1218" 
d="M170 0v1393h184v-519c32.667 62.667 76.667 110.834 132 144.501s122.666 50.5 201.999 50.5c69.333 0 130 -14.333 182 -43s95.167 -67.5 129.5 -116.5s60 -107 77 -174s25.5 -138.167 25.5 -213.5c0 -76.667 -8.5 -148 -25.5 -214s-42.667 -123.667 -77 -173
s-77.333 -88.333 -129 -117s-112.5 -43 -182.5 -43c-79.333 0 -146.666 16.833 -201.999 50.5s-99.333 81.834 -132 144.501v-170h-184zM354 433.998c0 -90 24.667 -164.334 74 -223.001s120.333 -88 213 -88c78 0 141.833 21.833 191.5 65.5s74.5 100.834 74.5 171.501v324
c0 70.667 -24.833 128 -74.5 172s-113.5 66 -191.5 66c-92.667 0 -163.667 -29.5 -213 -88.5s-74 -133.5 -74 -223.5v-176z" />
    <glyph glyph-name="c" unicode="c" horiz-adv-x="1093" 
d="M117 514c0 83.333 9.83008 159.499 29.4971 228.499s48.667 127.333 87 175s85.5 84.834 141.5 111.501s119.333 40 190 40c54.667 0 106.334 -7.16699 155.001 -21.5s91.334 -36.5 128.001 -66.5s66.667 -68.167 90 -114.5s37.666 -101.166 42.999 -164.499h-184
c-4 42 -12.833 77.167 -26.5 105.5s-31.5 51 -53.5 68s-47 29 -75 36s-57 10.5 -87 10.5c-31.333 0 -61.333 -5.16699 -90 -15.5s-54.667 -25.833 -78 -46.5s-41.833 -46.334 -55.5 -77.001s-20.5 -66.334 -20.5 -107.001v-307c0 -36.667 6.5 -70.5 19.5 -101.5
s30.833 -57 53.5 -78s48.667 -37.333 78 -49s61 -17.5 95 -17.5c68 0 124.667 18.333 170 55s71.333 94 78 172h184c-6.66699 -64 -23 -119.5 -49 -166.5s-58.167 -86 -96.5 -117s-81.666 -54 -129.999 -69s-99.166 -22.5 -152.499 -22.5c-76.667 0 -142.5 13.333 -197.5 40
s-101 64.334 -138 113.001s-64.333 105.667 -82 171s-26.5 137 -26.5 215z" />
    <glyph glyph-name="d" unicode="d" horiz-adv-x="1218" 
d="M117 522c0 75.333 8.50098 146.501 25.501 213.501s42.5 125 76.5 174s77 87.833 129 116.5s112.667 43 182 43c78 0 145 -16.667 201 -50s100.333 -81.666 133 -144.999v519h185v-1393h-185v170c-32.667 -62.667 -76.334 -110.834 -131.001 -144.501
s-120.667 -50.5 -198 -50.5c-70.667 0 -132.167 14.333 -184.5 43s-95.833 67.667 -130.5 117s-60.5 107.166 -77.5 173.499s-25.5 137.5 -25.5 213.5zM311.001 360.001c0 -35.333 6.83301 -67.668 20.5 -97.001s32.5 -54.166 56.5 -74.499s52 -36.333 84 -48
s67.333 -17.5 106 -17.5c92.667 0 163.5 29.333 212.5 88s73.5 133 73.5 223v176c0 90 -24.5 164.5 -73.5 223.5s-119.833 88.5 -212.5 88.5c-38 0 -73.167 -5.83301 -105.5 -17.5s-60.5 -27.834 -84.5 -48.501s-42.833 -45.667 -56.5 -75s-20.5 -61.666 -20.5 -96.999v-324
z" />
    <glyph glyph-name="e" unicode="e" horiz-adv-x="1122" 
d="M115 522c0 79.333 9.82812 152.831 29.4951 220.498s49 125.334 88 173.001s86.167 85.167 141.5 112.5s119 41 191 41c75.333 0 141 -13 197 -39s102.333 -61.5 139 -106.5s64.334 -97.833 83.001 -158.5s28 -126 28 -196v-98h-703v-111
c0 -38 7.16699 -71.667 21.5 -101s33.833 -54.166 58.5 -74.499s52.334 -35.666 83.001 -45.999s62.334 -15.5 95.001 -15.5c65.333 0 122 16.667 170 50s75.333 86.333 82 159h185c-4 -56 -18.667 -105.833 -44 -149.5s-58.166 -80.834 -98.499 -111.501
s-85.833 -54.334 -136.5 -71.001s-104 -25 -160 -25c-75.333 0 -141.166 13.667 -197.499 41s-103.333 65 -141 113s-65.667 105.333 -84 172s-27.5 140.334 -27.5 221.001zM308.995 617.998h512.001v58c0 38 -6.83301 72.333 -20.5 103s-32.334 56.667 -56.001 78
s-51 37.5 -82 48.5s-63.5 16.5 -97.5 16.5s-66.333 -5.5 -97 -16.5s-58 -27.167 -82 -48.5s-42.833 -47.333 -56.5 -78s-20.5 -65 -20.5 -103v-58z" />
    <glyph glyph-name="f" unicode="f" horiz-adv-x="710" 
d="M70 887v157h176v349h422v-158h-240v-191h219v-157h-219v-887h-182v887h-176z" />
    <glyph glyph-name="g" unicode="g" horiz-adv-x="1218" 
d="M117 522c0 75.333 8.50391 146.5 25.5039 213.5s42.5 125 76.5 174s77 87.833 129 116.5s112.667 43 182 43c78 0 145 -16.667 201 -50s100.333 -81.666 133 -144.999v170h185v-1024c0 -72.667 -13 -135.167 -39 -187.5s-60.167 -95.833 -102.5 -130.5
s-90.5 -60.167 -144.5 -76.5s-109 -24.5 -165 -24.5c-54.667 0 -106.834 5.33301 -156.501 16s-94.667 28.667 -135 54s-73.833 58.833 -100.5 100.5s-44 93.834 -52 156.501h184c6.66699 -60 32.167 -105 76.5 -135s102.833 -45 175.5 -45
c35.333 0 69.666 5.16699 102.999 15.5s62.666 26.666 87.999 48.999s45.5 51.333 60.5 87s22.5 78.834 22.5 129.501v141c-32.667 -62.667 -76.334 -110.834 -131.001 -144.501s-120.667 -50.5 -198 -50.5c-70.667 0 -132.167 14.333 -184.5 43s-95.833 67.667 -130.5 117
s-60.5 107.166 -77.5 173.499s-25.5 137.5 -25.5 213.5zM311.004 360c0 -35.333 6.83301 -67.668 20.5 -97.001s32.5 -54.166 56.5 -74.499s52 -36.333 84 -48s67.333 -17.5 106 -17.5c92.667 0 163.5 29.333 212.5 88s73.5 133 73.5 223v176c0 90 -24.5 164.5 -73.5 223.5
s-119.833 88.5 -212.5 88.5c-38 0 -73.167 -5.83301 -105.5 -17.5s-60.5 -27.834 -84.5 -48.501s-42.833 -45.667 -56.5 -75s-20.5 -61.666 -20.5 -96.999v-324z" />
    <glyph glyph-name="h" unicode="h" horiz-adv-x="1167" 
d="M170 0l-0.00195312 1393h184v-521c28.667 61.333 68 109.5 118 144.5s114.667 52.5 194 52.5c50.667 0 96.667 -6.83301 138 -20.5s77 -35.5 107 -65.5s53.333 -68.5 70 -115.5s25 -104.167 25 -171.5v-696h-185v676c0 76.667 -14.667 136.834 -44 180.501
s-83.666 65.5 -162.999 65.5c-38 0 -72.667 -7.5 -104 -22.5s-58.666 -36.5 -81.999 -64.5s-41.5 -61.167 -54.5 -99.5s-19.5 -80.166 -19.5 -125.499v-610h-184z" />
    <glyph glyph-name="i" unicode="i" horiz-adv-x="524" 
d="M166 1200v193h192v-193h-192zM170 0v1044h184v-1044h-184z" />
    <glyph glyph-name="j" unicode="j" horiz-adv-x="548" 
d="M-47 -190h242v1234h184v-1392h-426v158zM190 1200v193h193v-193h-193z" />
    <glyph glyph-name="k" unicode="k" horiz-adv-x="1069" 
d="M170 0v1393h184v-1393h-184zM356 584l410 460h223l-420 -460l449 -584h-211z" />
    <glyph glyph-name="l" unicode="l" horiz-adv-x="532" 
d="M174 0v1393h184v-1393h-184z" />
    <glyph glyph-name="m" unicode="m" horiz-adv-x="1736" 
d="M170 0l0.00292969 1044h184v-172c23.333 57.333 59.333 104.5 108 141.5s109.667 55.5 183 55.5c69.333 0 130.666 -17.333 183.999 -52s91.666 -89 114.999 -163c22 61.333 59.333 112.5 112 153.5s117.667 61.5 195 61.5c45.333 0 87.833 -6.83301 127.5 -20.5
s74.167 -35.5 103.5 -65.5s52.166 -68.5 68.499 -115.5s24.5 -104.167 24.5 -171.5v-696h-184v676c0 76.667 -14.667 136.834 -44 180.501s-78.333 65.5 -147 65.5c-32.667 0 -63 -7.5 -91 -22.5s-53 -36.5 -75 -64.5s-39 -61.167 -51 -99.5s-18 -80.166 -18 -125.499v-610
h-185v676c0 76.667 -14.667 136.834 -44 180.501s-78 65.5 -146 65.5c-32.667 0 -63 -7.5 -91 -22.5s-53 -36.5 -75 -64.5s-39.167 -61.167 -51.5 -99.5s-18.5 -80.166 -18.5 -125.499v-610h-184z" />
    <glyph glyph-name="n" unicode="n" horiz-adv-x="1167" 
d="M170 0l-0.00195312 1044h184v-172c28.667 61.333 68 109.5 118 144.5s114.667 52.5 194 52.5c50.667 0 96.667 -6.83301 138 -20.5s77 -35.5 107 -65.5s53.333 -68.5 70 -115.5s25 -104.167 25 -171.5v-696h-185v676c0 76.667 -14.667 136.834 -44 180.501
s-83.666 65.5 -162.999 65.5c-38 0 -72.667 -7.5 -104 -22.5s-58.666 -36.5 -81.999 -64.5s-41.5 -61.167 -54.5 -99.5s-19.5 -80.166 -19.5 -125.499v-610h-184z" />
    <glyph glyph-name="o" unicode="o" horiz-adv-x="1167" 
d="M115 522c0 79.333 9.49902 152.833 28.499 220.5s48 125.334 87 173.001s87.833 85.167 146.5 112.5s127.667 41 207 41s148.333 -13.667 207 -41s107.334 -64.833 146.001 -112.5s67.667 -105.334 87 -173.001s29 -141.167 29 -220.5
c0 -80.667 -9.66699 -154.334 -29 -221.001s-48.333 -124 -87 -172s-87.5 -85.667 -146.5 -113s-127.833 -41 -206.5 -41c-79.333 0 -148.333 13.667 -207 41s-107.5 65 -146.5 113s-68 105.333 -87 172s-28.5 140.334 -28.5 221.001zM308.999 360
c0 -35.333 7.50293 -67.666 22.5029 -96.999s34.833 -54.166 59.5 -74.499s53.667 -36.333 87 -48s68.666 -17.5 105.999 -17.5c36.667 0 71.667 5.83301 105 17.5s62.333 27.667 87 48s44.5 45.166 59.5 74.499s22.5 61.666 22.5 96.999v324
c0 35.333 -7.5 67.666 -22.5 96.999s-34.833 54.333 -59.5 75s-53.667 36.834 -87 48.501s-68.333 17.5 -105 17.5s-71.834 -5.83301 -105.501 -17.5s-62.834 -27.834 -87.501 -48.501s-44.5 -45.667 -59.5 -75s-22.5 -61.666 -22.5 -96.999v-324z" />
    <glyph glyph-name="p" unicode="p" horiz-adv-x="1218" 
d="M170 -348v1392h184v-170c32.667 62.667 76.667 110.834 132 144.501s122.666 50.5 201.999 50.5c69.333 0 130 -14.333 182 -43s95.167 -67.5 129.5 -116.5s60 -107 77 -174s25.5 -138.167 25.5 -213.5c0 -76.667 -8.5 -148 -25.5 -214s-42.667 -123.667 -77 -173
s-77.333 -88.333 -129 -117s-112.5 -43 -182.5 -43c-79.333 0 -146.666 16.833 -201.999 50.5s-99.333 81.834 -132 144.501v-518h-184zM354 433.998c0 -90 24.667 -164.334 74 -223.001s120.333 -88 213 -88c78 0 141.833 21.833 191.5 65.5s74.5 100.834 74.5 171.501v324
c0 70.667 -24.833 128 -74.5 172s-113.5 66 -191.5 66c-92.667 0 -163.667 -29.5 -213 -88.5s-74 -133.5 -74 -223.5v-176z" />
    <glyph glyph-name="q" unicode="q" horiz-adv-x="1218" 
d="M117 522c0 75.333 8.50098 146.501 25.501 213.501s42.5 125 76.5 174s77 87.833 129 116.5s112.667 43 182 43c78 0 145 -16.667 201 -50s100.333 -81.666 133 -144.999v170h185v-1392h-185v518c-32.667 -62.667 -76.334 -110.834 -131.001 -144.501
s-120.667 -50.5 -198 -50.5c-70.667 0 -132.167 14.333 -184.5 43s-95.833 67.667 -130.5 117s-60.5 107.166 -77.5 173.499s-25.5 137.5 -25.5 213.5zM311.001 360.001c0 -35.333 6.83301 -67.668 20.5 -97.001s32.5 -54.166 56.5 -74.499s52 -36.333 84 -48
s67.333 -17.5 106 -17.5c92.667 0 163.5 29.333 212.5 88s73.5 133 73.5 223v176c0 90 -24.5 164.5 -73.5 223.5s-119.833 88.5 -212.5 88.5c-38 0 -73.167 -5.83301 -105.5 -17.5s-60.5 -27.834 -84.5 -48.501s-42.833 -45.667 -56.5 -75s-20.5 -61.666 -20.5 -96.999v-324
z" />
    <glyph glyph-name="r" unicode="r" horiz-adv-x="731" 
d="M170 0v1044h502v-159h-318v-885h-184z" />
    <glyph glyph-name="s" unicode="s" horiz-adv-x="1042" 
d="M102 330l185.005 0.000976562c2.66699 -69.333 27.5 -121.166 74.5 -155.499s102.5 -51.5 166.5 -51.5c61.333 0 114.666 13.667 159.999 41s68 67 68 119c0 42 -13.667 75.667 -41 101s-76 44.666 -146 57.999l-172 35c-86 18 -152.167 51.167 -198.5 99.5
s-69.5 113.5 -69.5 195.5c0 40.667 9.16699 79.167 27.5 115.5s44.666 67.833 78.999 94.5s74.666 47.834 120.999 63.501s98.166 23.5 155.499 23.5c49.333 0 97.5 -6.5 144.5 -19.5s89 -33.167 126 -60.5s66.667 -62.166 89 -104.499s34.166 -92.833 35.499 -151.5h-184
c-2.66699 69.333 -24.167 118.166 -64.5 146.499s-88.5 42.5 -144.5 42.5c-57.333 0 -105.833 -13.667 -145.5 -41s-59.5 -63 -59.5 -107c0 -40.667 11.667 -72.334 35 -95.001s61 -39.334 113 -50.001l176 -37c104 -22 181.167 -57.5 231.5 -106.5
s75.5 -115.833 75.5 -200.5c0 -44 -9.83301 -84.833 -29.5 -122.5s-48 -70 -85 -97s-80.833 -48.833 -131.5 -65.5s-106.667 -25 -168 -25c-58.667 0 -113.5 7.5 -164.5 22.5s-95.667 37.333 -134 67s-68.5 66.667 -90.5 111s-33.667 95.833 -35 154.5z" />
    <glyph glyph-name="t" unicode="t" horiz-adv-x="753" 
d="M70 887v157h176v349h182v-349h240v-157h-240v-729h240v-158h-422v887h-176z" />
    <glyph glyph-name="u" unicode="u" horiz-adv-x="1159" 
d="M162 348v695.999h184v-675c0 -75.333 14.667 -135.166 44 -179.499s83 -66.5 161 -66.5s139.833 29 185.5 87s68.5 132.667 68.5 224v610h184v-1044h-184v172c-28.667 -61.333 -67 -109.5 -115 -144.5s-111.333 -52.5 -190 -52.5c-48 0 -92.833 6.83301 -134.5 20.5
s-77.5 35.5 -107.5 65.5s-53.5 68.667 -70.5 116s-25.5 104.333 -25.5 171z" />
    <glyph glyph-name="v" unicode="v" horiz-adv-x="1040" 
d="M57 1044h199l262 -825h8l267 825h190l-375 -1044h-176z" />
    <glyph glyph-name="w" unicode="w" horiz-adv-x="1533" 
d="M68 1044h186l207 -817h8l184 817h224l192 -817h8l209 817h180l-305 -1044h-194l-197 846h-8l-199 -846h-190z" />
    <glyph glyph-name="x" unicode="x" horiz-adv-x="1040" 
d="M53 0l359 541l-328 503h205l229 -364l234 364h200l-327 -491l362 -553h-207l-262 414l-260 -414h-205z" />
    <glyph glyph-name="y" unicode="y" horiz-adv-x="1067" 
d="M61 1044h199l272 -817h9l280 817h191l-512 -1392h-357v158h240l66 190z" />
    <glyph glyph-name="z" unicode="z" horiz-adv-x="995" 
d="M98 0v158l561 729h-520v157h733v-157l-561 -729h574v-158h-787z" />
    <glyph glyph-name="braceleft" unicode="{" horiz-adv-x="790" 
d="M70 481v156h194v-156h-194zM264 -348v829h174v-678h256v-151h-430zM264 637v829h430v-151h-256v-678h-174z" />
    <glyph glyph-name="bar" unicode="|" horiz-adv-x="538" 
d="M182 -348v2089h174v-2089h-174z" />
    <glyph glyph-name="braceright" unicode="}" horiz-adv-x="790" 
d="M96 -197h256v678h174v-829h-430v151zM96 1315v151h430v-829h195v-156h-195v156h-174v678h-256z" />
    <glyph glyph-name="asciitilde" unicode="~" 
d="M92 428c0 75.333 25.332 136.832 75.999 184.499s115.334 71.5 194.001 71.5c24.667 0 47.334 -2 68.001 -6s42.167 -10.167 64.5 -18.5s46.5 -18.666 72.5 -30.999l90 -44.5l77 -41.5c21.333 -11 39.833 -19.833 55.5 -26.5s30.334 -11.334 44.001 -14.001
s28.834 -4 45.501 -4c34 0 60.167 10.5 78.5 31.5s27.5 49.167 27.5 84.5h154c0 -75.333 -25.333 -136.833 -76 -184.5s-115.667 -71.5 -195 -71.5c-24.667 0 -47.167 2.16699 -67.5 6.5s-41.833 10.5 -64.5 18.5s-46.834 18.167 -72.501 30.5l-90.5 45.5l-77.5 41
c-20.333 10.667 -38.333 19.5 -54 26.5s-30.334 11.833 -44.001 14.5s-28.834 4 -45.501 4c-34 0 -60.167 -10.667 -78.5 -32s-27.5 -49.666 -27.5 -84.999h-154z" />
    <glyph glyph-name="uni00A0" unicode="&#xa0;" horiz-adv-x="520" 
 />
    <glyph glyph-name="exclamdown" unicode="&#xa1;" horiz-adv-x="540" 
d="M158 819v225h225v-225h-225zM178 -348v723l41 305h103l40 -305v-723h-184z" />
    <glyph glyph-name="cent" unicode="&#xa2;" 
d="M186 514c0 154 32.5029 279.835 97.5029 377.502s158.167 154.834 279.5 171.501v170h135v-168c95.333 -10.667 175.5 -45.167 240.5 -103.5s102.5 -144.833 112.5 -259.5h-185c-6.66699 66.667 -25.334 116.167 -56.001 148.5s-68 53.166 -112 62.499v-784
c49.333 10.667 89.666 34.167 120.999 70.5s49.666 86.5 54.999 150.5h185c-6.66699 -57.333 -20.667 -107.833 -42 -151.5s-48 -80.834 -80 -111.501s-68.5 -54.834 -109.5 -72.501s-84.167 -29.167 -129.5 -34.5v-168h-135v168c-64 8 -119.833 26.667 -167.5 56
s-87 67.5 -118 114.5s-54 101.333 -69 163s-22.5 128.5 -22.5 200.5zM381.003 369.002c0 -62.667 17.333 -114.833 52 -156.5s78 -69.5 130 -83.5v784c-50.667 -10.667 -93.667 -36.167 -129 -76.5s-53 -93.833 -53 -160.5v-307z" />
    <glyph glyph-name="sterling" unicode="&#xa3;" 
d="M111 0l-0.000976562 162h184v485h-184v162h184v221c0 50.667 8.5 99.5 25.5 146.5s42.667 89 77 126s77.333 66.333 129 88s111.834 32.5 180.501 32.5c68 0 128 -10.833 180 -32.5s95 -51 129 -88s59.5 -79.667 76.5 -128s25.5 -98.5 25.5 -150.5h-184
c0 78 -18.5 137.5 -55.5 178.5s-94.167 61.5 -171.5 61.5c-78 0 -135.5 -20.5 -172.5 -61.5s-55.5 -100.5 -55.5 -178.5v-215h334v-162h-334v-485h613v-162h-981z" />
    <glyph glyph-name="currency" unicode="&#xa4;" 
d="M117 213l110.001 111.001c-57.333 80.667 -86 172 -86 274c0 52 7.83301 100.833 23.5 146.5s37.167 87.5 64.5 125.5l-112 115l110 111l113 -115c39.333 27.333 81.666 48.833 126.999 64.5s93.666 23.5 144.999 23.5c50.667 0 98.834 -7.83301 144.501 -23.5
s88.5 -37.167 128.5 -64.5l114 115l111 -111l-115 -115c27.333 -39.333 48.833 -81.833 64.5 -127.5s23.5 -93.834 23.5 -144.501c0 -52 -7.83301 -100.5 -23.5 -145.5s-37.167 -87.167 -64.5 -126.5l115 -113l-111 -109l-112 111c-39.333 -27.333 -82 -48.833 -128 -64.5
s-95 -23.5 -147 -23.5c-102.667 0 -194 28.667 -274 86l-111 -111zM295.001 598.001c0 -44 8.16797 -85.333 24.501 -124s38.833 -72.334 67.5 -101.001s62.5 -51.167 101.5 -67.5s80.167 -24.5 123.5 -24.5c44 0 85.5 8.16699 124.5 24.5s72.833 38.833 101.5 67.5
s51.167 62.334 67.5 101.001s24.5 80 24.5 124s-8.16699 85.333 -24.5 124s-38.833 72.334 -67.5 101.001s-62.5 51.167 -101.5 67.5s-80.5 24.5 -124.5 24.5s-85.333 -8.16699 -124 -24.5s-72.334 -38.833 -101.001 -67.5s-51.167 -62.334 -67.5 -101.001
s-24.5 -80 -24.5 -124z" />
    <glyph glyph-name="yen" unicode="&#xa5;" 
d="M104 1393h201l309 -635l314 635h198l-340 -676h267v-121h-346v-121h346v-121h-346v-354h-185v354h-348v121h348v121h-348v121h266z" />
    <glyph glyph-name="brokenbar" unicode="&#xa6;" horiz-adv-x="546" 
d="M186 -348v854h174v-854h-174zM186 887v854h174v-854h-174z" />
    <glyph glyph-name="section" unicode="&#xa7;" horiz-adv-x="1198" 
d="M213 -186h647v319h-645v1260h827v-160h-643v-320h645v-1259h-831v160zM399 293h461v461h-461v-461z" />
    <glyph glyph-name="dieresis" unicode="&#xa8;" horiz-adv-x="679" 
d="M37 1212v181h180v-181h-180zM397 1212v181h181v-181h-181z" />
    <glyph glyph-name="copyright" unicode="&#xa9;" horiz-adv-x="1691" 
d="M119 696c0 100 19 194.333 57 283s89.833 165.834 155.5 231.501s142.5 117.5 230.5 155.5s182.667 57 284 57c100 0 194.333 -19 283 -57s165.667 -89.833 231 -155.5s117.166 -142.834 155.499 -231.501s57.5 -183 57.5 -283c0 -101.333 -19.167 -195.833 -57.5 -283.5
s-90.166 -164.334 -155.499 -230.001s-142.5 -117.667 -231.5 -156s-183.167 -57.5 -282.5 -57.5c-101.333 0 -196 19.167 -284 57.5s-164.833 90.333 -230.5 156s-117.5 142.334 -155.5 230.001s-57 182.167 -57 283.5zM252 696c0 -83.333 15.333 -161.166 46 -233.499
s72.667 -135 126 -188s116.166 -95 188.499 -126s150.166 -46.5 233.499 -46.5s161.166 15.5 233.499 46.5s135.166 73 188.499 126s95.333 115.667 126 188s46 150.166 46 233.499s-15.333 161.166 -46 233.499s-72.667 135.166 -126 188.499s-116.166 95.333 -188.499 126
s-150.166 46 -233.499 46s-161.166 -15.333 -233.499 -46s-135.166 -72.667 -188.499 -126s-95.333 -116.166 -126 -188.499s-46 -150.166 -46 -233.499zM539 690c0 114.667 27.666 206.502 82.999 275.502s132 103.5 230 103.5c75.333 0 139.5 -20.833 192.5 -62.5
s83.167 -104.167 90.5 -187.5h-136c-5.33301 53.333 -22.666 89.833 -51.999 109.5s-63.666 29.5 -102.999 29.5c-20.667 0 -40.5 -3.33301 -59.5 -10s-36 -16.834 -51 -30.501s-27.333 -30 -37 -49s-14.5 -41.5 -14.5 -67.5v-209c0 -48 16.333 -86.333 49 -115
s71 -43 115 -43c42 0 78 12 108 36s47.333 60.667 52 110h135c-5.33301 -44 -17.333 -82 -36 -114s-41.334 -58.667 -68.001 -80s-56.667 -37 -90 -47s-67 -15 -101 -15c-50.667 0 -95.167 9.16699 -133.5 27.5s-70.333 43.833 -96 76.5s-45 71.167 -58 115.5
s-19.5 93.166 -19.5 146.499z" />
    <glyph glyph-name="ordfeminine" unicode="&#xaa;" horiz-adv-x="817" 
d="M135 827c0 48 14.667 86.666 44 115.999s73.333 47.333 132 54l148 15v35c0 27.333 -7.16699 47 -21.5 59s-33.833 18 -58.5 18c-26 0 -47.167 -5.66699 -63.5 -17s-24.5 -30.666 -24.5 -57.999h-138c2.66699 60 25.167 105 67.5 135s96.5 45 162.5 45
c65.333 0 116.833 -15.667 154.5 -47s56.5 -78 56.5 -140v-260h92v-106h-219l-2 80h-6c-34 -61.333 -84.667 -92 -152 -92c-52 0 -93.667 15.333 -125 46s-47 69.667 -47 117zM276 810.999c0 -28.667 22.667 -43.001 68 -43.001c35.333 0 63.333 11.333 84 34s31 55 31 97
v14l-142 -12c-27.333 -1.33301 -41 -15.666 -41 -42.999v-47z" />
    <glyph glyph-name="guillemotleft" unicode="&#xab;" horiz-adv-x="1017" 
d="M119 526l219 381h164l-199 -381l199 -381h-164zM502 526l219 381h164l-199 -381l199 -381h-164z" />
    <glyph glyph-name="logicalnot" unicode="&#xac;" 
d="M84 659v148h1044v-561h-151v413h-893z" />
    <glyph glyph-name="uni00AD" unicode="&#xad;" horiz-adv-x="884" 
d="M156 471v168h573v-168h-573z" />
    <glyph glyph-name="registered" unicode="&#xae;" horiz-adv-x="1691" 
d="M119 696c0 100 19 194.333 57 283s89.833 165.834 155.5 231.501s142.5 117.5 230.5 155.5s182.667 57 284 57c100 0 194.333 -19 283 -57s165.667 -89.833 231 -155.5s117.166 -142.834 155.499 -231.501s57.5 -183 57.5 -283c0 -101.333 -19.167 -195.833 -57.5 -283.5
s-90.166 -164.334 -155.499 -230.001s-142.5 -117.667 -231.5 -156s-183.167 -57.5 -282.5 -57.5c-101.333 0 -196 19.167 -284 57.5s-164.833 90.333 -230.5 156s-117.5 142.334 -155.5 230.001s-57 182.167 -57 283.5zM252 696c0 -83.333 15.333 -161.166 46 -233.499
s72.667 -135 126 -188s116.166 -95 188.499 -126s150.166 -46.5 233.499 -46.5s161.166 15.5 233.499 46.5s135.166 73 188.499 126s95.333 115.667 126 188s46 150.166 46 233.499s-15.333 161.166 -46 233.499s-72.667 135.166 -126 188.499s-116.166 95.333 -188.499 126
s-150.166 46 -233.499 46s-161.166 -15.333 -233.499 -46s-135.166 -72.667 -188.499 -126s-95.333 -116.166 -126 -188.499s-46 -150.166 -46 -233.499zM586 348v696h319c70.667 0 125.167 -19 163.5 -57s57.5 -92.667 57.5 -164c0 -61.333 -14.667 -109.333 -44 -144
s-65 -57.667 -107 -69l153 -262h-147l-143 256h-119v-256h-133zM719 711h194c26 0 45.167 7.83301 57.5 23.5s18.5 34.5 18.5 56.5v69c0 50.667 -25.333 76 -76 76h-194v-225z" />
    <glyph glyph-name="macron" unicode="&#xaf;" horiz-adv-x="614" 
d="M10 1251v121h592v-121h-592z" />
    <glyph glyph-name="degree" unicode="&#xb0;" horiz-adv-x="806" 
d="M117 1137c0 39.333 7.5 76.333 22.5 111s35.5 65 61.5 91s56.333 46.5 91 61.5s71.667 22.5 111 22.5s76.5 -7.5 111.5 -22.5s65.5 -35.5 91.5 -61.5s46.5 -56.333 61.5 -91s22.5 -71.667 22.5 -111s-7.5 -76.5 -22.5 -111.5s-35.5 -65.5 -61.5 -91.5
s-56.333 -46.5 -91 -61.5s-72 -22.5 -112 -22.5c-39.333 0 -76.333 7.5 -111 22.5s-65 35.5 -91 61.5s-46.5 56.5 -61.5 91.5s-22.5 72.167 -22.5 111.5zM219 1137c0 -52 17.833 -95.833 53.5 -131.5s79.167 -53.5 130.5 -53.5c52 0 95.833 17.833 131.5 53.5
s53.5 79.5 53.5 131.5s-17.833 95.667 -53.5 131s-79.5 53 -131.5 53s-95.667 -17.667 -131 -53s-53 -79 -53 -131z" />
    <glyph glyph-name="plusminus" unicode="&#xb1;" 
d="M92 0v147h1045v-147h-1045zM92 571v148h445v325h155v-325h445v-148h-445v-325h-155v325h-445z" />
    <glyph glyph-name="uni00B2" unicode="&#xb2;" horiz-adv-x="813" 
d="M143 852v122.999l295 266c23.333 22 41.833 42.167 55.5 60.5s20.5 41.833 20.5 70.5s-9.5 51.834 -28.5 69.501s-45.167 26.5 -78.5 26.5c-35.333 0 -63.5 -9.83301 -84.5 -29.5s-31.5 -49.167 -31.5 -88.5h-144c0 74 24.667 131.667 74 173s113 62 191 62
s138 -20.167 180 -60.5s63 -90.5 63 -150.5c0 -52 -11.167 -94.667 -33.5 -128s-50.833 -64.333 -85.5 -93l-206 -174v-4h340v-123h-527z" />
    <glyph glyph-name="uni00B3" unicode="&#xb3;" horiz-adv-x="790" 
d="M123 1065l143.004 -0.000976562c2.66699 -40.667 15.667 -70.334 39 -89.001s52.666 -28 87.999 -28c36.667 0 66 8.83301 88 26.5s33 39.5 33 65.5v62c0 42 -21.667 63 -65 63h-152v111h144c23.333 0 39.333 5.5 48 16.5s13 25.167 13 42.5v56
c0 27.333 -9.83301 47.833 -29.5 61.5s-44.5 20.5 -74.5 20.5c-32.667 0 -59.334 -8.33301 -80.001 -25s-32.334 -42 -35.001 -76h-144c0 66.667 24.667 118.834 74 156.501s111.666 56.5 186.999 56.5c76.667 0 137.667 -18 183 -54s68 -82.667 68 -140
c0 -80.667 -37.333 -137.334 -112 -170.001c40.667 -15.333 71.667 -36.666 93 -63.999s32 -64 32 -110c0 -64 -25.333 -115.167 -76 -153.5s-115 -57.5 -193 -57.5c-36.667 0 -71.334 4.66699 -104.001 14s-61.667 23.333 -87 42s-45.166 42.334 -59.499 71.001
s-21.5 62.667 -21.5 102z" />
    <glyph glyph-name="acute" unicode="&#xb4;" horiz-adv-x="614" 
d="M223 1174l162 249h215l-217 -249h-160z" />
    <glyph glyph-name="mu" unicode="&#xb5;" horiz-adv-x="1224" 
d="M195 -348l-0.000976562 1392h184v-698c0 -69.333 15.667 -123.833 47 -163.5s84 -59.5 158 -59.5c78 0 139.833 29 185.5 87s68.5 132.667 68.5 224v610h184v-1044h-184v172c-28.667 -61.333 -66.667 -109.5 -114 -144.5s-107.666 -52.5 -180.999 -52.5
c-36.667 0 -69.167 6.5 -97.5 19.5s-50.5 29.167 -66.5 48.5v-391h-184z" />
    <glyph glyph-name="paragraph" unicode="&#xb6;" horiz-adv-x="1277" 
d="M111 696v697h956v-1577h-174v1429h-260v-1429h-174v880h-348z" />
    <glyph glyph-name="periodcentered" unicode="&#xb7;" horiz-adv-x="536" 
d="M156 412v225h225v-225h-225z" />
    <glyph glyph-name="cedilla" unicode="&#xb8;" horiz-adv-x="614" 
d="M164 -215h143v143h144v-276h-287v133z" />
    <glyph glyph-name="uni00B9" unicode="&#xb9;" horiz-adv-x="624" 
d="M92 1331v115h227v123h143v-717h-143v479h-227z" />
    <glyph glyph-name="ordmasculine" unicode="&#xba;" horiz-adv-x="763" 
d="M127 946c0 86 22.167 154.667 66.5 206s106.833 77 187.5 77c82 0 145.167 -25.667 189.5 -77s66.5 -120 66.5 -206s-22.167 -154.5 -66.5 -205.5s-107.5 -76.5 -189.5 -76.5c-80.667 0 -143.167 25.5 -187.5 76.5s-66.5 119.5 -66.5 205.5zM270 866
c0 -31.333 10.667 -55.833 32 -73.5s47.666 -26.5 78.999 -26.5s57.666 8.83301 78.999 26.5s32 42.167 32 73.5v160c0 31.333 -10.667 55.833 -32 73.5s-47.666 26.5 -78.999 26.5s-57.666 -8.83301 -78.999 -26.5s-32 -42.167 -32 -73.5v-160z" />
    <glyph glyph-name="guillemotright" unicode="&#xbb;" horiz-adv-x="1017" 
d="M133 145l199 381l-199 381h164l219 -381l-219 -381h-164zM516 145l199 381l-199 381h164l219 -381l-219 -381h-164z" />
    <glyph glyph-name="onequarter" unicode="&#xbc;" horiz-adv-x="1562" 
d="M88 1155v115h227v123h144v-717h-144v479h-227zM258 0l872 1393h156l-872 -1393h-156zM895 160v114l303 443h152v-443h129v-114h-129v-160h-140v160h-315zM1020 274h190v271h-4z" />
    <glyph glyph-name="onehalf" unicode="&#xbd;" horiz-adv-x="1587" 
d="M88 1155v115h227v123h144v-717h-144v479h-227zM258 0l872 1393h156l-872 -1393h-156zM958 0l-0.000976562 122.999l295 266c23.333 22 41.833 42.167 55.5 60.5s20.5 41.833 20.5 70.5s-9.5 51.834 -28.5 69.501s-44.833 26.5 -77.5 26.5
c-35.333 0 -63.666 -9.83301 -84.999 -29.5s-32 -49.167 -32 -88.5h-143c0 74 24.5 131.667 73.5 173s112.5 62 190.5 62s138 -20.167 180 -60.5s63 -90.5 63 -150.5c0 -52 -11.167 -94.667 -33.5 -128s-50.5 -64.333 -84.5 -93l-207 -174v-4h340v-123h-527z" />
    <glyph glyph-name="threequarters" unicode="&#xbe;" horiz-adv-x="1609" 
d="M100 889h144c2.66699 -40.667 15.5 -70.334 38.5 -89.001s52.5 -28 88.5 -28c36.667 0 66 8.83301 88 26.5s33 39.5 33 65.5v62c0 42 -22 63 -66 63h-152v111h144c23.333 0 39.333 5.5 48 16.5s13 25.167 13 42.5v55c0 27.333 -9.83301 47.833 -29.5 61.5
s-44.5 20.5 -74.5 20.5c-32.667 0 -59.334 -8.16699 -80.001 -24.5s-32.334 -41.5 -35.001 -75.5h-143c0 66.667 24.5 118.834 73.5 156.501s111.167 56.5 186.5 56.5c76.667 0 137.834 -18.167 183.501 -54.5s68.5 -83.166 68.5 -140.499
c0 -80.667 -37.667 -137.334 -113 -170.001c40.667 -15.333 71.667 -36.5 93 -63.5s32 -63.833 32 -110.5c0 -64 -25.333 -115.167 -76 -153.5s-114.667 -57.5 -192 -57.5c-36.667 0 -71.5 4.83301 -104.5 14.5s-62.167 23.667 -87.5 42s-45.166 41.833 -59.499 70.5
s-21.5 63 -21.5 103zM324 0l872 1393h156l-873 -1393h-155zM942 160v114l303 443h152v-443h129v-114h-129v-160h-140v160h-315zM1067 274h190v271h-4z" />
    <glyph glyph-name="questiondown" unicode="&#xbf;" horiz-adv-x="1013" 
d="M80 -6c0 45.333 4.33203 85.3311 12.999 119.998s21 66 37 94s34.5 53.5 55.5 76.5s43.167 44.833 66.5 65.5l80 71c23.333 21.333 43.166 41.5 59.499 60.5s28.833 39.333 37.5 61s13 46.834 13 75.501v62h185v-62c0 -39.333 -4.16699 -74 -12.5 -104
s-20.666 -58 -36.999 -84s-37.166 -51.333 -62.499 -76s-54.333 -49.667 -87 -75c-57.333 -46.667 -99 -90.834 -125 -132.501s-39 -91.167 -39 -148.5c0 -69.333 22.167 -123.166 66.5 -161.499s100.833 -57.5 169.5 -57.5c74 0 134.167 20.5 180.5 61.5
s72.833 100.167 79.5 177.5h184c-4 -61.333 -18.667 -116.5 -44 -165.5s-58.166 -90.667 -98.499 -125s-86.333 -60.666 -138 -78.999s-106.834 -27.5 -165.501 -27.5c-60 0 -115.667 8.83301 -167 26.5s-95.5 43 -132.5 76s-66 72.333 -87 118s-31.5 96.5 -31.5 152.5z
M421.999 818.998v225h225v-225h-225z" />
    <glyph glyph-name="Agrave" unicode="&#xc0;" horiz-adv-x="1292" 
d="M55 0l482 1393h217l483 -1393h-205l-114 344h-547l-115 -344h-201zM422 504h444l-217 672h-8zM438 1779h215l162 -249h-160z" />
    <glyph glyph-name="Aacute" unicode="&#xc1;" horiz-adv-x="1292" 
d="M55 0l482 1393h217l483 -1393h-205l-114 344h-547l-115 -344h-201zM422 504h444l-217 672h-8zM465 1530l162 249h215l-217 -249h-160z" />
    <glyph glyph-name="Acircumflex" unicode="&#xc2;" horiz-adv-x="1292" 
d="M55 0l482 1393h217l483 -1393h-205l-114 344h-547l-115 -344h-201zM373 1530l170 249h211l170 -249h-160l-117 149l-117 -149h-157zM422 504h444l-217 672h-8z" />
    <glyph glyph-name="Atilde" unicode="&#xc3;" horiz-adv-x="1292" 
d="M55 0l482 1393h217l483 -1393h-205l-114 344h-547l-115 -344h-201zM332 1567c0 61.333 16.001 109 48.001 143s76.667 51 134 51c28.667 0 55.667 -5.16699 81 -15.5s49.666 -21.5 72.999 -33.5l65.5 -33.5c20.333 -10.333 39.5 -15.5 57.5 -15.5
c45.333 0 67.666 26 66.999 78h103c0 -61.333 -16.167 -109.166 -48.5 -143.499s-77.166 -51.5 -134.499 -51.5c-28.667 0 -55.5 5.16699 -80.5 15.5s-49.167 21.666 -72.5 33.999l-66 33.5c-20.667 10 -39.667 15 -57 15c-45.333 0 -68 -25.667 -68 -77h-102zM422.001 504
h444l-217 672h-8z" />
    <glyph glyph-name="Adieresis" unicode="&#xc4;" horiz-adv-x="1292" 
d="M55 0l482 1393h217l483 -1393h-205l-114 344h-547l-115 -344h-201zM367 1568v181h180v-181h-180zM422 504h444l-217 672h-8zM727 1568v181h181v-181h-181z" />
    <glyph glyph-name="Aring" unicode="&#xc5;" horiz-adv-x="1292" 
d="M55 0l482 1393h217l483 -1393h-205l-114 344h-547l-115 -344h-201zM422 504h444l-217 672h-8zM463 1712c0 45.333 16 86 48 122s76.667 54 134 54s102 -18 134 -54s48 -76.667 48 -122c0 -46.667 -16 -87.667 -48 -123s-76.667 -53 -134 -53s-102 17.833 -134 53.5
s-48 76.5 -48 122.5zM553 1712c0 -24.667 8.5 -46.167 25.5 -64.5s39.167 -27.5 66.5 -27.5s49.166 9.16699 65.499 27.5s24.5 39.833 24.5 64.5s-8.16699 45.834 -24.5 63.501s-38.166 26.5 -65.499 26.5s-49.5 -8.83301 -66.5 -26.5s-25.5 -38.834 -25.5 -63.501z" />
    <glyph glyph-name="AE" unicode="&#xc6;" horiz-adv-x="1929" 
d="M-2 0l686 1393h1124v-174h-708v-422h614v-174h-614v-449h708v-174h-903v346h-522l-168 -346h-217zM461 506h444v713h-98z" />
    <glyph glyph-name="Ccedilla" unicode="&#xc7;" horiz-adv-x="1314" 
d="M125 684c0 113.333 11.6689 215.664 35.002 306.997s58.833 169.166 106.5 233.499s107.667 113.5 180 147.5s156.833 51 253.5 51c66.667 0 129.167 -9.83301 187.5 -29.5s109.333 -48 153 -85s78.834 -81.667 105.501 -134s42 -111.5 46 -177.5h-195
c-9.33301 82 -41.333 145.167 -96 189.5s-127.667 66.5 -219 66.5c-49.333 0 -94.833 -8.5 -136.5 -25.5s-77.834 -40.5 -108.501 -70.5s-54.5 -65.833 -71.5 -107.5s-25.5 -87.834 -25.5 -138.501v-430c0 -49.333 9.16699 -94.666 27.5 -135.999
s43.666 -77.5 75.999 -108.5s70 -55 113 -72s88.833 -25.5 137.5 -25.5c92.667 0 167.834 20.833 225.501 62.5s91.167 109.834 100.5 204.501h194c-4 -65.333 -20 -125.166 -48 -179.499s-64.833 -100.166 -110.5 -137.499s-99.334 -66.666 -161.001 -87.999
s-127.834 -32 -198.501 -32c-92.667 0 -174.5 16.833 -245.5 50.5s-130.333 81.834 -178 144.501s-84.167 137.667 -109.5 225s-38 185.666 -38 294.999zM481.002 -215.002h144v143h143v-276h-287v133z" />
    <glyph glyph-name="Egrave" unicode="&#xc8;" horiz-adv-x="1232" 
d="M188 0v1393h924v-174h-729v-422h635v-174h-635v-449h729v-174h-924zM399 1779h215l162 -249h-160z" />
    <glyph glyph-name="Eacute" unicode="&#xc9;" horiz-adv-x="1232" 
d="M188 0v1393h924v-174h-729v-422h635v-174h-635v-449h729v-174h-924zM499 1530l162 249h215l-217 -249h-160z" />
    <glyph glyph-name="Ecircumflex" unicode="&#xca;" horiz-adv-x="1232" 
d="M188 0v1393h924v-174h-729v-422h635v-174h-635v-449h729v-174h-924zM383 1530l170 249h211l170 -249h-160l-117 149l-117 -149h-157z" />
    <glyph glyph-name="Edieresis" unicode="&#xcb;" horiz-adv-x="1232" 
d="M188 0v1393h924v-174h-729v-422h635v-174h-635v-449h729v-174h-924zM389 1568v181h180v-181h-180zM749 1568v181h181v-181h-181z" />
    <glyph glyph-name="Igrave" unicode="&#xcc;" horiz-adv-x="571" 
d="M34 1779h215l162 -249h-160zM188 0v1393h195v-1393h-195z" />
    <glyph glyph-name="Iacute" unicode="&#xcd;" horiz-adv-x="571" 
d="M162 1530l162 249h215l-217 -249h-160zM188 0v1393h195v-1393h-195z" />
    <glyph glyph-name="Icircumflex" unicode="&#xce;" horiz-adv-x="571" 
d="M13 1530l170 249h211l170 -249h-160l-117 149l-117 -149h-157zM188 0v1393h195v-1393h-195z" />
    <glyph glyph-name="Idieresis" unicode="&#xcf;" horiz-adv-x="571" 
d="M17 1568v181h180v-181h-180zM188 0v1393h195v-1393h-195zM377 1568v181h181v-181h-181z" />
    <glyph glyph-name="Eth" unicode="&#xd0;" horiz-adv-x="1380" 
d="M55 623v146.999h148v623h450c210 0 362.167 -57.667 456.5 -173s141.5 -290 141.5 -524c0 -233.333 -47 -407.666 -141 -522.999s-246.333 -173 -457 -173h-450v623h-148zM397 173.999l256 -0.00195312c131.333 0 228 27.333 290 82s93 133.334 93 236.001v409
c0 102.667 -31 181.334 -93 236.001s-158.667 82 -290 82h-256v-449h320v-147h-320v-449z" />
    <glyph glyph-name="Ntilde" unicode="&#xd1;" horiz-adv-x="1423" 
d="M188 0v1393h275l575 -1157h9v1157h188v-1393h-274l-576 1163h-8v-1163h-189zM397 1567c0 61.333 16.001 109 48.001 143s76.667 51 134 51c28.667 0 55.667 -5.16699 81 -15.5s49.666 -21.5 72.999 -33.5l65.5 -33.5c20.333 -10.333 39.5 -15.5 57.5 -15.5
c45.333 0 67.666 26 66.999 78h103c0 -61.333 -16.167 -109.166 -48.5 -143.499s-77.166 -51.5 -134.499 -51.5c-28.667 0 -55.5 5.16699 -80.5 15.5s-49.167 21.666 -72.5 33.999l-66 33.5c-20.667 10 -39.667 15 -57 15c-45.333 0 -68 -25.667 -68 -77h-102z" />
    <glyph glyph-name="Ograve" unicode="&#xd2;" horiz-adv-x="1445" 
d="M125 696c0 109.333 11.667 208.666 35 297.999s59.166 165.833 107.499 229.5s110 112.834 185 147.501s165.167 52 270.5 52s195.5 -17.333 270.5 -52s136.667 -83.834 185 -147.501s84.166 -140.167 107.499 -229.5s35 -188.666 35 -297.999
s-11.667 -208.666 -35 -297.999s-59.166 -165.666 -107.499 -228.999s-110 -112.5 -185 -147.5s-165.167 -52.5 -270.5 -52.5s-195.5 17.5 -270.5 52.5s-136.667 84.167 -185 147.5s-84.166 139.666 -107.499 228.999s-35 188.666 -35 297.999zM340 481
c0 -53.333 9.83301 -100.833 29.5 -142.5s47 -77.5 82 -107.5s75.667 -52.833 122 -68.5s96.166 -23.5 149.499 -23.5s103.166 7.83301 149.499 23.5s87 38.5 122 68.5s62.333 65.833 82 107.5s29.5 89.167 29.5 142.5v430c0 53.333 -9.83301 100.833 -29.5 142.5
s-47 77.5 -82 107.5s-75.667 52.833 -122 68.5s-96.166 23.5 -149.499 23.5s-103.166 -7.83301 -149.499 -23.5s-87 -38.5 -122 -68.5s-62.333 -65.833 -82 -107.5s-29.5 -89.167 -29.5 -142.5v-430zM454 1802h215l162 -249h-160z" />
    <glyph glyph-name="Oacute" unicode="&#xd3;" horiz-adv-x="1445" 
d="M125 696c0 109.333 11.667 208.666 35 297.999s59.166 165.833 107.499 229.5s110 112.834 185 147.501s165.167 52 270.5 52s195.5 -17.333 270.5 -52s136.667 -83.834 185 -147.501s84.166 -140.167 107.499 -229.5s35 -188.666 35 -297.999
s-11.667 -208.666 -35 -297.999s-59.166 -165.666 -107.499 -228.999s-110 -112.5 -185 -147.5s-165.167 -52.5 -270.5 -52.5s-195.5 17.5 -270.5 52.5s-136.667 84.167 -185 147.5s-84.166 139.666 -107.499 228.999s-35 188.666 -35 297.999zM340 481
c0 -53.333 9.83301 -100.833 29.5 -142.5s47 -77.5 82 -107.5s75.667 -52.833 122 -68.5s96.166 -23.5 149.499 -23.5s103.166 7.83301 149.499 23.5s87 38.5 122 68.5s62.333 65.833 82 107.5s29.5 89.167 29.5 142.5v430c0 53.333 -9.83301 100.833 -29.5 142.5
s-47 77.5 -82 107.5s-75.667 52.833 -122 68.5s-96.166 23.5 -149.499 23.5s-103.166 -7.83301 -149.499 -23.5s-87 -38.5 -122 -68.5s-62.333 -65.833 -82 -107.5s-29.5 -89.167 -29.5 -142.5v-430zM606 1553l162 249h215l-217 -249h-160z" />
    <glyph glyph-name="Ocircumflex" unicode="&#xd4;" horiz-adv-x="1445" 
d="M125 696c0 109.333 11.667 208.666 35 297.999s59.166 165.833 107.499 229.5s110 112.834 185 147.501s165.167 52 270.5 52s195.5 -17.333 270.5 -52s136.667 -83.834 185 -147.501s84.166 -140.167 107.499 -229.5s35 -188.666 35 -297.999
s-11.667 -208.666 -35 -297.999s-59.166 -165.666 -107.499 -228.999s-110 -112.5 -185 -147.5s-165.167 -52.5 -270.5 -52.5s-195.5 17.5 -270.5 52.5s-136.667 84.167 -185 147.5s-84.166 139.666 -107.499 228.999s-35 188.666 -35 297.999zM340 481
c0 -53.333 9.83301 -100.833 29.5 -142.5s47 -77.5 82 -107.5s75.667 -52.833 122 -68.5s96.166 -23.5 149.499 -23.5s103.166 7.83301 149.499 23.5s87 38.5 122 68.5s62.333 65.833 82 107.5s29.5 89.167 29.5 142.5v430c0 53.333 -9.83301 100.833 -29.5 142.5
s-47 77.5 -82 107.5s-75.667 52.833 -122 68.5s-96.166 23.5 -149.499 23.5s-103.166 -7.83301 -149.499 -23.5s-87 -38.5 -122 -68.5s-62.333 -65.833 -82 -107.5s-29.5 -89.167 -29.5 -142.5v-430zM449 1553l170 249h211l170 -249h-160l-117 149l-117 -149h-157z" />
    <glyph glyph-name="Otilde" unicode="&#xd5;" horiz-adv-x="1445" 
d="M125 696c0 109.333 11.667 208.666 35 297.999s59.166 165.833 107.499 229.5s110 112.834 185 147.501s165.167 52 270.5 52s195.5 -17.333 270.5 -52s136.667 -83.834 185 -147.501s84.166 -140.167 107.499 -229.5s35 -188.666 35 -297.999
s-11.667 -208.666 -35 -297.999s-59.166 -165.666 -107.499 -228.999s-110 -112.5 -185 -147.5s-165.167 -52.5 -270.5 -52.5s-195.5 17.5 -270.5 52.5s-136.667 84.167 -185 147.5s-84.166 139.666 -107.499 228.999s-35 188.666 -35 297.999zM340 481
c0 -53.333 9.83301 -100.833 29.5 -142.5s47 -77.5 82 -107.5s75.667 -52.833 122 -68.5s96.166 -23.5 149.499 -23.5s103.166 7.83301 149.499 23.5s87 38.5 122 68.5s62.333 65.833 82 107.5s29.5 89.167 29.5 142.5v430c0 53.333 -9.83301 100.833 -29.5 142.5
s-47 77.5 -82 107.5s-75.667 52.833 -122 68.5s-96.166 23.5 -149.499 23.5s-103.166 -7.83301 -149.499 -23.5s-87 -38.5 -122 -68.5s-62.333 -65.833 -82 -107.5s-29.5 -89.167 -29.5 -142.5v-430zM410 1567c0 61.333 16.001 109 48.001 143s76.667 51 134 51
c28.667 0 55.667 -5.16699 81 -15.5s49.666 -21.5 72.999 -33.5l65.5 -33.5c20.333 -10.333 39.5 -15.5 57.5 -15.5c45.333 0 67.666 26 66.999 78h103c0 -61.333 -16.167 -109.166 -48.5 -143.499s-77.166 -51.5 -134.499 -51.5c-28.667 0 -55.5 5.16699 -80.5 15.5
s-49.167 21.666 -72.5 33.999l-66 33.5c-20.667 10 -39.667 15 -57 15c-45.333 0 -68 -25.667 -68 -77h-102z" />
    <glyph glyph-name="Odieresis" unicode="&#xd6;" horiz-adv-x="1445" 
d="M125 696c0 109.333 11.667 208.666 35 297.999s59.166 165.833 107.499 229.5s110 112.834 185 147.501s165.167 52 270.5 52s195.5 -17.333 270.5 -52s136.667 -83.834 185 -147.501s84.166 -140.167 107.499 -229.5s35 -188.666 35 -297.999
s-11.667 -208.666 -35 -297.999s-59.166 -165.666 -107.499 -228.999s-110 -112.5 -185 -147.5s-165.167 -52.5 -270.5 -52.5s-195.5 17.5 -270.5 52.5s-136.667 84.167 -185 147.5s-84.166 139.666 -107.499 228.999s-35 188.666 -35 297.999zM340 481
c0 -53.333 9.83301 -100.833 29.5 -142.5s47 -77.5 82 -107.5s75.667 -52.833 122 -68.5s96.166 -23.5 149.499 -23.5s103.166 7.83301 149.499 23.5s87 38.5 122 68.5s62.333 65.833 82 107.5s29.5 89.167 29.5 142.5v430c0 53.333 -9.83301 100.833 -29.5 142.5
s-47 77.5 -82 107.5s-75.667 52.833 -122 68.5s-96.166 23.5 -149.499 23.5s-103.166 -7.83301 -149.499 -23.5s-87 -38.5 -122 -68.5s-62.333 -65.833 -82 -107.5s-29.5 -89.167 -29.5 -142.5v-430zM451 1591v181h180v-181h-180zM811 1591v181h181v-181h-181z" />
    <glyph glyph-name="multiply" unicode="&#xd7;" 
d="M90 111l412 409l-412 412l113 112l409 -411l412 411l113 -112l-412 -412l412 -409l-111 -111l-412 412l-411 -414z" />
    <glyph glyph-name="Oslash" unicode="&#xd8;" horiz-adv-x="1445" 
d="M125 696c0 109.333 11.667 208.663 35 297.996s59.166 165.833 107.499 229.5s110 112.834 185 147.501s165.167 52 270.5 52c53.333 0 102.5 -4.66699 147.5 -14s87.167 -23 126.5 -41l82 164l115 -55l-88 -177c74 -62.667 128.333 -145.5 163 -248.5
s52 -221.5 52 -355.5c0 -109.333 -11.667 -208.666 -35 -297.999s-59.166 -165.666 -107.499 -228.999s-110 -112.5 -185 -147.5s-165.167 -52.5 -270.5 -52.5c-49.333 0 -95.5 3.83301 -138.5 11.5s-82.833 18.834 -119.5 33.501l-76 -153l-115 55l80 162
c-79.333 61.333 -137.333 144.833 -174 250.5s-55 228.167 -55 367.5zM340 480.997c0 -49.333 8.49902 -93.667 25.499 -133s41.167 -74 72.5 -104l480 966c-28.667 13.333 -59.5 23.833 -92.5 31.5s-67.167 11.5 -102.5 11.5c-53.333 0 -103.166 -7.83301 -149.499 -23.5
s-87 -38.5 -122 -68.5s-62.333 -65.833 -82 -107.5s-29.5 -89.167 -29.5 -142.5v-430zM544.999 173.996c54.667 -23.333 114.001 -35 178.001 -35c53.333 0 103.166 7.83301 149.499 23.5s87 38.5 122 68.5s62.333 65.833 82 107.5s29.5 89.167 29.5 142.5v430
c0 87.333 -28 161.333 -84 222z" />
    <glyph glyph-name="Ugrave" unicode="&#xd9;" horiz-adv-x="1400" 
d="M176 496l0.00292969 897.001h195v-912c0 -106.667 28.333 -190.334 85 -251.001s138 -91 244 -91c106.667 0 188.667 30.5 246 91.5s86 144.5 86 250.5v912h193v-897c0 -82 -12.333 -155.5 -37 -220.5s-59.834 -120 -105.501 -165s-101 -79.833 -166 -104.5
s-137.167 -37 -216.5 -37s-151.333 12.333 -216 37s-119.834 59.5 -165.501 104.5s-80.834 100 -105.501 165s-37 138.5 -37 220.5zM460.003 1779h215l162 -249h-160z" />
    <glyph glyph-name="Uacute" unicode="&#xda;" horiz-adv-x="1400" 
d="M176 496l0.00292969 897.001h195v-912c0 -106.667 28.333 -190.334 85 -251.001s138 -91 244 -91c106.667 0 188.667 30.5 246 91.5s86 144.5 86 250.5v912h193v-897c0 -82 -12.333 -155.5 -37 -220.5s-59.834 -120 -105.501 -165s-101 -79.833 -166 -104.5
s-137.167 -37 -216.5 -37s-151.333 12.333 -216 37s-119.834 59.5 -165.501 104.5s-80.834 100 -105.501 165s-37 138.5 -37 220.5zM569.003 1530l162 249h215l-217 -249h-160z" />
    <glyph glyph-name="Ucircumflex" unicode="&#xdb;" horiz-adv-x="1400" 
d="M176 496l0.00292969 897.001h195v-912c0 -106.667 28.333 -190.334 85 -251.001s138 -91 244 -91c106.667 0 188.667 30.5 246 91.5s86 144.5 86 250.5v912h193v-897c0 -82 -12.333 -155.5 -37 -220.5s-59.834 -120 -105.501 -165s-101 -79.833 -166 -104.5
s-137.167 -37 -216.5 -37s-151.333 12.333 -216 37s-119.834 59.5 -165.501 104.5s-80.834 100 -105.501 165s-37 138.5 -37 220.5zM426.003 1530l170 249h211l170 -249h-160l-117 149l-117 -149h-157z" />
    <glyph glyph-name="Udieresis" unicode="&#xdc;" horiz-adv-x="1400" 
d="M176 496l0.00292969 897.001h195v-912c0 -106.667 28.333 -190.334 85 -251.001s138 -91 244 -91c106.667 0 188.667 30.5 246 91.5s86 144.5 86 250.5v912h193v-897c0 -82 -12.333 -155.5 -37 -220.5s-59.834 -120 -105.501 -165s-101 -79.833 -166 -104.5
s-137.167 -37 -216.5 -37s-151.333 12.333 -216 37s-119.834 59.5 -165.501 104.5s-80.834 100 -105.501 165s-37 138.5 -37 220.5zM430.003 1568v181h180v-181h-180zM790.003 1568v181h181v-181h-181z" />
    <glyph glyph-name="Yacute" unicode="&#xdd;" horiz-adv-x="1206" 
d="M43 1393h213l348 -648l354 648h207l-465 -840v-553h-194v555zM516 1489l162 249h215l-217 -249h-160z" />
    <glyph glyph-name="Thorn" unicode="&#xde;" horiz-adv-x="1247" 
d="M188 0l0.00195312 1393h195v-260h332c83.333 0 151.166 -8 203.499 -24s97.166 -43 134.499 -81c35.333 -36.667 60.5 -82.667 75.5 -138s22.5 -115.666 22.5 -180.999c0 -64 -9.16699 -124.5 -27.5 -181.5s-47.5 -105.167 -87.5 -144.5
c-76.667 -75.333 -183 -113 -319 -113h-334v-270h-195zM383.002 443.999h408c46.667 0 84.167 15.167 112.5 45.5s42.5 68.5 42.5 114.5v203c0 46.667 -13.667 83.5 -41 110.5s-65.333 40.5 -114 40.5h-408v-514z" />
    <glyph glyph-name="germandbls" unicode="&#xdf;" horiz-adv-x="1132" 
d="M170 0l0.00390625 1044c0 48 9.83301 94.833 29.5 140.5s48 86.334 85 122.001s81.5 64 133.5 85s110 31.5 174 31.5s121 -9.5 171 -28.5s92 -44.833 126 -77.5s59.833 -70.5 77.5 -113.5s26.5 -88.5 26.5 -136.5c0 -92.667 -16.667 -163.667 -50 -213
s-84 -89.666 -152 -120.999c68 -20.667 122.167 -57.834 162.5 -111.501s60.5 -131.167 60.5 -232.5c0 -64 -11.333 -122 -34 -174s-54.834 -96 -96.501 -132s-91.834 -64 -150.501 -84s-123.334 -30 -194.001 -30h-21v160h14c86 0 155.667 18.167 209 54.5
s80 85.833 80 148.5v178c0 42 -10.833 76.667 -32.5 104s-57.834 41 -108.501 41h-162v158h141c50.667 0 87 13.333 109 40s33 61 33 103v156c0 27.333 -5.83301 50.5 -17.5 69.5s-27 34.667 -46 47s-41.167 21.666 -66.5 27.999s-51.666 9.5 -78.999 9.5
c-32.667 0 -63.334 -4.5 -92.001 -13.5s-53.667 -22.667 -75 -41s-38.5 -41.166 -51.5 -68.499s-19.5 -60.333 -19.5 -99v-1044h-184z" />
    <glyph glyph-name="agrave" unicode="&#xe0;" horiz-adv-x="1128" 
d="M104 287c0 82 26 152.33 78 210.997s130 92.667 234 102l340 31v84c0 40.667 -5.16699 74.334 -15.5 101.001s-25 47.834 -44 63.501s-41.833 26.667 -68.5 33s-56.334 9.5 -89.001 9.5c-65.333 0 -117.5 -14.667 -156.5 -44s-58.5 -77.666 -58.5 -144.999h-185
c0 49.333 10.667 94.5 32 135.5s50 76.5 86 106.5s78.333 53.167 127 69.5s101 24.5 157 24.5s108.167 -7.16699 156.5 -21.5s90.333 -35.833 126 -64.5s63.334 -65.5 83.001 -110.5s29.5 -98.167 29.5 -159.5v-555h156v-158h-312l-4 193h-8
c-28.667 -74 -71 -128.833 -127 -164.5s-123 -53.5 -201 -53.5c-52 0 -99 8 -141 24s-78.333 39.667 -109 71c-27.333 27.333 -48.5 60 -63.5 98s-22.5 77.667 -22.5 119zM233 1423h215l162 -249h-160zM299 261.997c0 -48 16.667 -83.167 50 -105.5s79.333 -33.5 138 -33.5
c83.333 0 149 29.667 197 89s72 136 72 230v47l-371 -34c-38 -2.66699 -61.833 -12.667 -71.5 -30s-14.5 -41 -14.5 -71v-92z" />
    <glyph glyph-name="aacute" unicode="&#xe1;" horiz-adv-x="1128" 
d="M104 287c0 82 26 152.33 78 210.997s130 92.667 234 102l340 31v84c0 40.667 -5.16699 74.334 -15.5 101.001s-25 47.834 -44 63.501s-41.833 26.667 -68.5 33s-56.334 9.5 -89.001 9.5c-65.333 0 -117.5 -14.667 -156.5 -44s-58.5 -77.666 -58.5 -144.999h-185
c0 49.333 10.667 94.5 32 135.5s50 76.5 86 106.5s78.333 53.167 127 69.5s101 24.5 157 24.5s108.167 -7.16699 156.5 -21.5s90.333 -35.833 126 -64.5s63.334 -65.5 83.001 -110.5s29.5 -98.167 29.5 -159.5v-555h156v-158h-312l-4 193h-8
c-28.667 -74 -71 -128.833 -127 -164.5s-123 -53.5 -201 -53.5c-52 0 -99 8 -141 24s-78.333 39.667 -109 71c-27.333 27.333 -48.5 60 -63.5 98s-22.5 77.667 -22.5 119zM299 261.997c0 -48 16.667 -83.167 50 -105.5s79.333 -33.5 138 -33.5c83.333 0 149 29.667 197 89
s72 136 72 230v47l-371 -34c-38 -2.66699 -61.833 -12.667 -71.5 -30s-14.5 -41 -14.5 -71v-92zM444 1174l162 249h215l-217 -249h-160z" />
    <glyph glyph-name="acircumflex" unicode="&#xe2;" horiz-adv-x="1128" 
d="M104 287c0 82 26 152.33 78 210.997s130 92.667 234 102l340 31v84c0 40.667 -5.16699 74.334 -15.5 101.001s-25 47.834 -44 63.501s-41.833 26.667 -68.5 33s-56.334 9.5 -89.001 9.5c-65.333 0 -117.5 -14.667 -156.5 -44s-58.5 -77.666 -58.5 -144.999h-185
c0 49.333 10.667 94.5 32 135.5s50 76.5 86 106.5s78.333 53.167 127 69.5s101 24.5 157 24.5s108.167 -7.16699 156.5 -21.5s90.333 -35.833 126 -64.5s63.334 -65.5 83.001 -110.5s29.5 -98.167 29.5 -159.5v-555h156v-158h-312l-4 193h-8
c-28.667 -74 -71 -128.833 -127 -164.5s-123 -53.5 -201 -53.5c-52 0 -99 8 -141 24s-78.333 39.667 -109 71c-27.333 27.333 -48.5 60 -63.5 98s-22.5 77.667 -22.5 119zM260 1174l170 249h211l170 -249h-160l-117 149l-117 -149h-157zM299 261.997
c0 -48 16.667 -83.167 50 -105.5s79.333 -33.5 138 -33.5c83.333 0 149 29.667 197 89s72 136 72 230v47l-371 -34c-38 -2.66699 -61.833 -12.667 -71.5 -30s-14.5 -41 -14.5 -71v-92z" />
    <glyph glyph-name="atilde" unicode="&#xe3;" horiz-adv-x="1128" 
d="M104 287c0 82 26 152.33 78 210.997s130 92.667 234 102l340 31v84c0 40.667 -5.16699 74.334 -15.5 101.001s-25 47.834 -44 63.501s-41.833 26.667 -68.5 33s-56.334 9.5 -89.001 9.5c-65.333 0 -117.5 -14.667 -156.5 -44s-58.5 -77.666 -58.5 -144.999h-185
c0 49.333 10.667 94.5 32 135.5s50 76.5 86 106.5s78.333 53.167 127 69.5s101 24.5 157 24.5s108.167 -7.16699 156.5 -21.5s90.333 -35.833 126 -64.5s63.334 -65.5 83.001 -110.5s29.5 -98.167 29.5 -159.5v-555h156v-158h-312l-4 193h-8
c-28.667 -74 -71 -128.833 -127 -164.5s-123 -53.5 -201 -53.5c-52 0 -99 8 -141 24s-78.333 39.667 -109 71c-27.333 27.333 -48.5 60 -63.5 98s-22.5 77.667 -22.5 119zM240 1219c0 61.333 16.001 109 48.001 143s76.667 51 134 51c28.667 0 55.667 -5.16699 81 -15.5
s49.666 -21.5 72.999 -33.5l65.5 -33.5c20.333 -10.333 39.5 -15.5 57.5 -15.5c45.333 0 67.666 26 66.999 78h103c0 -61.333 -16.167 -109.166 -48.5 -143.499s-77.166 -51.5 -134.499 -51.5c-28.667 0 -55.5 5.16699 -80.5 15.5s-49.167 21.666 -72.5 33.999l-66 33.5
c-20.667 10 -39.667 15 -57 15c-45.333 0 -68 -25.667 -68 -77h-102zM299.001 261.997c0 -48 16.667 -83.167 50 -105.5s79.333 -33.5 138 -33.5c83.333 0 149 29.667 197 89s72 136 72 230v47l-371 -34c-38 -2.66699 -61.833 -12.667 -71.5 -30s-14.5 -41 -14.5 -71v-92z
" />
    <glyph glyph-name="adieresis" unicode="&#xe4;" horiz-adv-x="1128" 
d="M104 287c0 82 26 152.33 78 210.997s130 92.667 234 102l340 31v84c0 40.667 -5.16699 74.334 -15.5 101.001s-25 47.834 -44 63.501s-41.833 26.667 -68.5 33s-56.334 9.5 -89.001 9.5c-65.333 0 -117.5 -14.667 -156.5 -44s-58.5 -77.666 -58.5 -144.999h-185
c0 49.333 10.667 94.5 32 135.5s50 76.5 86 106.5s78.333 53.167 127 69.5s101 24.5 157 24.5s108.167 -7.16699 156.5 -21.5s90.333 -35.833 126 -64.5s63.334 -65.5 83.001 -110.5s29.5 -98.167 29.5 -159.5v-555h156v-158h-312l-4 193h-8
c-28.667 -74 -71 -128.833 -127 -164.5s-123 -53.5 -201 -53.5c-52 0 -99 8 -141 24s-78.333 39.667 -109 71c-27.333 27.333 -48.5 60 -63.5 98s-22.5 77.667 -22.5 119zM262 1212v181h180v-181h-180zM299 261.997c0 -48 16.667 -83.167 50 -105.5s79.333 -33.5 138 -33.5
c83.333 0 149 29.667 197 89s72 136 72 230v47l-371 -34c-38 -2.66699 -61.833 -12.667 -71.5 -30s-14.5 -41 -14.5 -71v-92zM622 1212v181h181v-181h-181z" />
    <glyph glyph-name="aring" unicode="&#xe5;" horiz-adv-x="1128" 
d="M104 287c0 82 26 152.33 78 210.997s130 92.667 234 102l340 31v84c0 40.667 -5.16699 74.334 -15.5 101.001s-25 47.834 -44 63.501s-41.833 26.667 -68.5 33s-56.334 9.5 -89.001 9.5c-65.333 0 -117.5 -14.667 -156.5 -44s-58.5 -77.666 -58.5 -144.999h-185
c0 49.333 10.667 94.5 32 135.5s50 76.5 86 106.5s78.333 53.167 127 69.5s101 24.5 157 24.5s108.167 -7.16699 156.5 -21.5s90.333 -35.833 126 -64.5s63.334 -65.5 83.001 -110.5s29.5 -98.167 29.5 -159.5v-555h156v-158h-312l-4 193h-8
c-28.667 -74 -71 -128.833 -127 -164.5s-123 -53.5 -201 -53.5c-52 0 -99 8 -141 24s-78.333 39.667 -109 71c-27.333 27.333 -48.5 60 -63.5 98s-22.5 77.667 -22.5 119zM299 261.997c0 -48 16.667 -83.167 50 -105.5s79.333 -33.5 138 -33.5c83.333 0 149 29.667 197 89
s72 136 72 230v47l-371 -34c-38 -2.66699 -61.833 -12.667 -71.5 -30s-14.5 -41 -14.5 -71v-92zM350 1333c0 45.333 16 86 48 122s76.667 54 134 54s102 -18 134 -54s48 -76.667 48 -122c0 -46.667 -16 -87.667 -48 -123s-76.667 -53 -134 -53s-102 17.833 -134 53.5
s-48 76.5 -48 122.5zM440 1333c0 -24.667 8.5 -46.167 25.5 -64.5s39.167 -27.5 66.5 -27.5s49.166 9.16699 65.499 27.5s24.5 39.833 24.5 64.5s-8.16699 45.834 -24.5 63.501s-38.166 26.5 -65.499 26.5s-49.5 -8.83301 -66.5 -26.5s-25.5 -38.834 -25.5 -63.501z" />
    <glyph glyph-name="ae" unicode="&#xe6;" horiz-adv-x="1734" 
d="M106 307c0 40.667 7.33496 79.8301 22.002 117.497s35.167 70.834 61.5 99.501s58 51.5 95 68.5s78.167 25.5 123.5 25.5h350v97c0 40.667 -5.16699 74.334 -15.5 101.001s-25 47.834 -44 63.501s-41.833 26.667 -68.5 33s-56.334 9.5 -89.001 9.5
c-65.333 0 -117.5 -14.667 -156.5 -44s-58.5 -77.666 -58.5 -144.999h-185c0 49.333 10.667 94.5 32 135.5s50 76.5 86 106.5s78.333 53.167 127 69.5s101 24.5 157 24.5c74 0 139.167 -11.333 195.5 -34s102.5 -57.667 138.5 -105c38 44 83 78.167 135 102.5
s110.667 36.5 176 36.5c69.333 0 131 -13 185 -39s99.5 -61.5 136.5 -106.5s65.333 -97.833 85 -158.5s29.5 -126 29.5 -196v-98h-682v-111c0 -38 7.16699 -71.667 21.5 -101s33.5 -54.166 57.5 -74.499s50.667 -35.666 80 -45.999s59 -15.5 89 -15.5
c61.333 0 115.166 16.667 161.499 50s73.166 86.333 80.499 159h184c-4 -56 -18.667 -105.833 -44 -149.5s-57.5 -80.834 -96.5 -111.501s-83.333 -54.334 -133 -71.001s-101.167 -25 -154.5 -25c-80.667 0 -149 15.167 -205 45.5s-104.333 74.166 -145 131.499h-4
c-40.667 -57.333 -91.5 -101.166 -152.5 -131.499s-130.5 -45.5 -208.5 -45.5c-72.667 0 -130 8 -172 24s-78 39.667 -108 71c-27.333 27.333 -48.666 60.666 -63.999 99.999s-23 85 -23 137zM301.002 261.996c0 -48 16.667 -83.167 50 -105.5s79.333 -33.5 138 -33.5
c83.333 0 149 29.667 197 89s72 136 72 230v29h-371c-27.333 0 -48.5 -8.5 -63.5 -25.5s-22.5 -40.5 -22.5 -70.5v-113zM942.002 617.996h492.002v58c0 38 -6.83301 72.333 -20.5 103s-31.834 56.667 -54.501 78s-49 37.5 -79 48.5s-60.667 16.5 -92 16.5
s-62 -5.5 -92 -16.5s-56.333 -27.167 -79 -48.5s-40.834 -47.333 -54.501 -78s-20.5 -65 -20.5 -103v-58z" />
    <glyph glyph-name="ccedilla" unicode="&#xe7;" horiz-adv-x="1093" 
d="M117 514c0 83.333 9.83008 159.499 29.4971 228.499s48.667 127.333 87 175s85.5 84.834 141.5 111.501s119.333 40 190 40c54.667 0 106.334 -7.16699 155.001 -21.5s91.334 -36.5 128.001 -66.5s66.667 -68.167 90 -114.5s37.666 -101.166 42.999 -164.499h-184
c-4 42 -12.833 77.167 -26.5 105.5s-31.5 51 -53.5 68s-47 29 -75 36s-57 10.5 -87 10.5c-31.333 0 -61.333 -5.16699 -90 -15.5s-54.667 -25.833 -78 -46.5s-41.833 -46.334 -55.5 -77.001s-20.5 -66.334 -20.5 -107.001v-307c0 -36.667 6.5 -70.5 19.5 -101.5
s30.833 -57 53.5 -78s48.667 -37.333 78 -49s61 -17.5 95 -17.5c68 0 124.667 18.333 170 55s71.333 94 78 172h184c-6.66699 -64 -23 -119.5 -49 -166.5s-58.167 -86 -96.5 -117s-81.666 -54 -129.999 -69s-99.166 -22.5 -152.499 -22.5c-76.667 0 -142.5 13.333 -197.5 40
s-101 64.334 -138 113.001s-64.333 105.667 -82 171s-26.5 137 -26.5 215zM347.997 -215.001h144v143h143v-276h-287v133z" />
    <glyph glyph-name="egrave" unicode="&#xe8;" horiz-adv-x="1122" 
d="M115 522c0 79.333 9.82812 152.831 29.4951 220.498s49 125.334 88 173.001s86.167 85.167 141.5 112.5s119 41 191 41c75.333 0 141 -13 197 -39s102.333 -61.5 139 -106.5s64.334 -97.833 83.001 -158.5s28 -126 28 -196v-98h-703v-111
c0 -38 7.16699 -71.667 21.5 -101s33.833 -54.166 58.5 -74.499s52.334 -35.666 83.001 -45.999s62.334 -15.5 95.001 -15.5c65.333 0 122 16.667 170 50s75.333 86.333 82 159h185c-4 -56 -18.667 -105.833 -44 -149.5s-58.166 -80.834 -98.499 -111.501
s-85.833 -54.334 -136.5 -71.001s-104 -25 -160 -25c-75.333 0 -141.166 13.667 -197.499 41s-103.333 65 -141 113s-65.667 105.333 -84 172s-27.5 140.334 -27.5 221.001zM283.995 1423h215l162 -249h-160zM308.995 617.998h512.001v58c0 38 -6.83301 72.333 -20.5 103
s-32.334 56.667 -56.001 78s-51 37.5 -82 48.5s-63.5 16.5 -97.5 16.5s-66.333 -5.5 -97 -16.5s-58 -27.167 -82 -48.5s-42.833 -47.333 -56.5 -78s-20.5 -65 -20.5 -103v-58z" />
    <glyph glyph-name="eacute" unicode="&#xe9;" horiz-adv-x="1122" 
d="M115 522c0 79.333 9.82812 152.831 29.4951 220.498s49 125.334 88 173.001s86.167 85.167 141.5 112.5s119 41 191 41c75.333 0 141 -13 197 -39s102.333 -61.5 139 -106.5s64.334 -97.833 83.001 -158.5s28 -126 28 -196v-98h-703v-111
c0 -38 7.16699 -71.667 21.5 -101s33.833 -54.166 58.5 -74.499s52.334 -35.666 83.001 -45.999s62.334 -15.5 95.001 -15.5c65.333 0 122 16.667 170 50s75.333 86.333 82 159h185c-4 -56 -18.667 -105.833 -44 -149.5s-58.166 -80.834 -98.499 -111.501
s-85.833 -54.334 -136.5 -71.001s-104 -25 -160 -25c-75.333 0 -141.166 13.667 -197.499 41s-103.333 65 -141 113s-65.667 105.333 -84 172s-27.5 140.334 -27.5 221.001zM308.995 617.998h512.001v58c0 38 -6.83301 72.333 -20.5 103s-32.334 56.667 -56.001 78
s-51 37.5 -82 48.5s-63.5 16.5 -97.5 16.5s-66.333 -5.5 -97 -16.5s-58 -27.167 -82 -48.5s-42.833 -47.333 -56.5 -78s-20.5 -65 -20.5 -103v-58zM474.996 1174l162 249h215l-217 -249h-160z" />
    <glyph glyph-name="ecircumflex" unicode="&#xea;" horiz-adv-x="1122" 
d="M115 522c0 79.333 9.82812 152.831 29.4951 220.498s49 125.334 88 173.001s86.167 85.167 141.5 112.5s119 41 191 41c75.333 0 141 -13 197 -39s102.333 -61.5 139 -106.5s64.334 -97.833 83.001 -158.5s28 -126 28 -196v-98h-703v-111
c0 -38 7.16699 -71.667 21.5 -101s33.833 -54.166 58.5 -74.499s52.334 -35.666 83.001 -45.999s62.334 -15.5 95.001 -15.5c65.333 0 122 16.667 170 50s75.333 86.333 82 159h185c-4 -56 -18.667 -105.833 -44 -149.5s-58.166 -80.834 -98.499 -111.501
s-85.833 -54.334 -136.5 -71.001s-104 -25 -160 -25c-75.333 0 -141.166 13.667 -197.499 41s-103.333 65 -141 113s-65.667 105.333 -84 172s-27.5 140.334 -27.5 221.001zM288.995 1174l170 249h211l170 -249h-160l-117 149l-117 -149h-157zM308.995 617.998h512.001v58
c0 38 -6.83301 72.333 -20.5 103s-32.334 56.667 -56.001 78s-51 37.5 -82 48.5s-63.5 16.5 -97.5 16.5s-66.333 -5.5 -97 -16.5s-58 -27.167 -82 -48.5s-42.833 -47.333 -56.5 -78s-20.5 -65 -20.5 -103v-58z" />
    <glyph glyph-name="edieresis" unicode="&#xeb;" horiz-adv-x="1122" 
d="M115 522c0 79.333 9.82812 152.831 29.4951 220.498s49 125.334 88 173.001s86.167 85.167 141.5 112.5s119 41 191 41c75.333 0 141 -13 197 -39s102.333 -61.5 139 -106.5s64.334 -97.833 83.001 -158.5s28 -126 28 -196v-98h-703v-111
c0 -38 7.16699 -71.667 21.5 -101s33.833 -54.166 58.5 -74.499s52.334 -35.666 83.001 -45.999s62.334 -15.5 95.001 -15.5c65.333 0 122 16.667 170 50s75.333 86.333 82 159h185c-4 -56 -18.667 -105.833 -44 -149.5s-58.166 -80.834 -98.499 -111.501
s-85.833 -54.334 -136.5 -71.001s-104 -25 -160 -25c-75.333 0 -141.166 13.667 -197.499 41s-103.333 65 -141 113s-65.667 105.333 -84 172s-27.5 140.334 -27.5 221.001zM294.995 1212v181h180v-181h-180zM308.995 617.998h512.001v58c0 38 -6.83301 72.333 -20.5 103
s-32.334 56.667 -56.001 78s-51 37.5 -82 48.5s-63.5 16.5 -97.5 16.5s-66.333 -5.5 -97 -16.5s-58 -27.167 -82 -48.5s-42.833 -47.333 -56.5 -78s-20.5 -65 -20.5 -103v-58zM654.996 1212v181h181v-181h-181z" />
    <glyph glyph-name="igrave" unicode="&#xec;" horiz-adv-x="524" 
d="M14 1423h215l162 -249h-160zM170 0v1044h184v-1044h-184z" />
    <glyph glyph-name="iacute" unicode="&#xed;" horiz-adv-x="524" 
d="M137 1174l162 249h215l-217 -249h-160zM170 0v1044h184v-1044h-184z" />
    <glyph glyph-name="icircumflex" unicode="&#xee;" horiz-adv-x="524" 
d="M-10 1174l170 249h211l170 -249h-160l-117 149l-117 -149h-157zM170 0v1044h184v-1044h-184z" />
    <glyph glyph-name="idieresis" unicode="&#xef;" horiz-adv-x="524" 
d="M-6 1212v181h180v-181h-180zM170 0v1044h184v-1044h-184zM354 1212v181h181v-181h-181z" />
    <glyph glyph-name="eth" unicode="&#xf0;" horiz-adv-x="1169" 
d="M117 481c0 74 9.50195 141.669 28.502 203.002s46.667 114.5 83 159.5s79.333 80.167 129 105.5s105.167 38 166.5 38c64 0 117.333 -9.66699 160 -29l-98 152h-275v127h193l-101 156h199l100 -156h277v-127h-193l109 -162l48 -77
c18.667 -30.667 36.167 -65.334 52.5 -104.001s30.333 -82 42 -130s17.5 -100 17.5 -156c0 -75.333 -10.667 -144 -32 -206s-51.833 -115.167 -91.5 -159.5s-88.834 -78.833 -147.501 -103.5s-124.667 -37 -198 -37c-74 0 -140.333 12.333 -199 37
s-107.834 59.167 -147.501 103.5s-70 97.666 -91 159.999s-31.5 130.833 -31.5 205.5zM311.002 360.002c0 -35.333 7.50098 -67.666 22.501 -96.999s34.833 -54.166 59.5 -74.499s53.667 -36.333 87 -48s68.666 -17.5 105.999 -17.5c36.667 0 71.667 5.83301 105 17.5
s62.333 27.667 87 48s44.5 45.166 59.5 74.499s22.5 61.666 22.5 96.999v242c0 35.333 -7.5 67.666 -22.5 96.999s-35.167 54.333 -60.5 75s-54.666 36.834 -87.999 48.501s-67.666 17.5 -102.999 17.5c-36.667 0 -71.834 -5.83301 -105.501 -17.5
s-62.834 -27.834 -87.501 -48.501s-44.5 -45.667 -59.5 -75s-22.5 -61.666 -22.5 -96.999v-242z" />
    <glyph glyph-name="ntilde" unicode="&#xf1;" horiz-adv-x="1167" 
d="M170 0l-0.00195312 1044h184v-172c28.667 61.333 68 109.5 118 144.5s114.667 52.5 194 52.5c50.667 0 96.667 -6.83301 138 -20.5s77 -35.5 107 -65.5s53.333 -68.5 70 -115.5s25 -104.167 25 -171.5v-696h-185v676c0 76.667 -14.667 136.834 -44 180.501
s-83.666 65.5 -162.999 65.5c-38 0 -72.667 -7.5 -104 -22.5s-58.666 -36.5 -81.999 -64.5s-41.5 -61.167 -54.5 -99.5s-19.5 -80.166 -19.5 -125.499v-610h-184zM269.998 1219c0 61.333 16.001 109 48.001 143s76.667 51 134 51c28.667 0 55.667 -5.16699 81 -15.5
s49.666 -21.5 72.999 -33.5l65.5 -33.5c20.333 -10.333 39.5 -15.5 57.5 -15.5c45.333 0 67.666 26 66.999 78h103c0 -61.333 -16.167 -109.166 -48.5 -143.499s-77.166 -51.5 -134.499 -51.5c-28.667 0 -55.5 5.16699 -80.5 15.5s-49.167 21.666 -72.5 33.999l-66 33.5
c-20.667 10 -39.667 15 -57 15c-45.333 0 -68 -25.667 -68 -77h-102z" />
    <glyph glyph-name="ograve" unicode="&#xf2;" horiz-adv-x="1167" 
d="M115 522c0 79.333 9.49902 152.833 28.499 220.5s48 125.334 87 173.001s87.833 85.167 146.5 112.5s127.667 41 207 41s148.333 -13.667 207 -41s107.334 -64.833 146.001 -112.5s67.667 -105.334 87 -173.001s29 -141.167 29 -220.5
c0 -80.667 -9.66699 -154.334 -29 -221.001s-48.333 -124 -87 -172s-87.5 -85.667 -146.5 -113s-127.833 -41 -206.5 -41c-79.333 0 -148.333 13.667 -207 41s-107.5 65 -146.5 113s-68 105.333 -87 172s-28.5 140.334 -28.5 221.001zM279.999 1423h215l162 -249h-160z
M308.999 360c0 -35.333 7.50293 -67.666 22.5029 -96.999s34.833 -54.166 59.5 -74.499s53.667 -36.333 87 -48s68.666 -17.5 105.999 -17.5c36.667 0 71.667 5.83301 105 17.5s62.333 27.667 87 48s44.5 45.166 59.5 74.499s22.5 61.666 22.5 96.999v324
c0 35.333 -7.5 67.666 -22.5 96.999s-34.833 54.333 -59.5 75s-53.667 36.834 -87 48.501s-68.333 17.5 -105 17.5s-71.834 -5.83301 -105.501 -17.5s-62.834 -27.834 -87.501 -48.501s-44.5 -45.667 -59.5 -75s-22.5 -61.666 -22.5 -96.999v-324z" />
    <glyph glyph-name="oacute" unicode="&#xf3;" horiz-adv-x="1167" 
d="M115 522c0 79.333 9.49902 152.833 28.499 220.5s48 125.334 87 173.001s87.833 85.167 146.5 112.5s127.667 41 207 41s148.333 -13.667 207 -41s107.334 -64.833 146.001 -112.5s67.667 -105.334 87 -173.001s29 -141.167 29 -220.5
c0 -80.667 -9.66699 -154.334 -29 -221.001s-48.333 -124 -87 -172s-87.5 -85.667 -146.5 -113s-127.833 -41 -206.5 -41c-79.333 0 -148.333 13.667 -207 41s-107.5 65 -146.5 113s-68 105.333 -87 172s-28.5 140.334 -28.5 221.001zM308.999 360
c0 -35.333 7.50293 -67.666 22.5029 -96.999s34.833 -54.166 59.5 -74.499s53.667 -36.333 87 -48s68.666 -17.5 105.999 -17.5c36.667 0 71.667 5.83301 105 17.5s62.333 27.667 87 48s44.5 45.166 59.5 74.499s22.5 61.666 22.5 96.999v324
c0 35.333 -7.5 67.666 -22.5 96.999s-34.833 54.333 -59.5 75s-53.667 36.834 -87 48.501s-68.333 17.5 -105 17.5s-71.834 -5.83301 -105.501 -17.5s-62.834 -27.834 -87.501 -48.501s-44.5 -45.667 -59.5 -75s-22.5 -61.666 -22.5 -96.999v-324zM491.002 1174l162 249h215
l-217 -249h-160z" />
    <glyph glyph-name="ocircumflex" unicode="&#xf4;" horiz-adv-x="1167" 
d="M115 522c0 79.333 9.49902 152.833 28.499 220.5s48 125.334 87 173.001s87.833 85.167 146.5 112.5s127.667 41 207 41s148.333 -13.667 207 -41s107.334 -64.833 146.001 -112.5s67.667 -105.334 87 -173.001s29 -141.167 29 -220.5
c0 -80.667 -9.66699 -154.334 -29 -221.001s-48.333 -124 -87 -172s-87.5 -85.667 -146.5 -113s-127.833 -41 -206.5 -41c-79.333 0 -148.333 13.667 -207 41s-107.5 65 -146.5 113s-68 105.333 -87 172s-28.5 140.334 -28.5 221.001zM308.999 360
c0 -35.333 7.50293 -67.666 22.5029 -96.999s34.833 -54.166 59.5 -74.499s53.667 -36.333 87 -48s68.666 -17.5 105.999 -17.5c36.667 0 71.667 5.83301 105 17.5s62.333 27.667 87 48s44.5 45.166 59.5 74.499s22.5 61.666 22.5 96.999v324
c0 35.333 -7.5 67.666 -22.5 96.999s-34.833 54.333 -59.5 75s-53.667 36.834 -87 48.501s-68.333 17.5 -105 17.5s-71.834 -5.83301 -105.501 -17.5s-62.834 -27.834 -87.501 -48.501s-44.5 -45.667 -59.5 -75s-22.5 -61.666 -22.5 -96.999v-324zM312.002 1174l170 249h211
l170 -249h-160l-117 149l-117 -149h-157z" />
    <glyph glyph-name="otilde" unicode="&#xf5;" horiz-adv-x="1167" 
d="M115 522c0 79.333 9.49902 152.833 28.499 220.5s48 125.334 87 173.001s87.833 85.167 146.5 112.5s127.667 41 207 41s148.333 -13.667 207 -41s107.334 -64.833 146.001 -112.5s67.667 -105.334 87 -173.001s29 -141.167 29 -220.5
c0 -80.667 -9.66699 -154.334 -29 -221.001s-48.333 -124 -87 -172s-87.5 -85.667 -146.5 -113s-127.833 -41 -206.5 -41c-79.333 0 -148.333 13.667 -207 41s-107.5 65 -146.5 113s-68 105.333 -87 172s-28.5 140.334 -28.5 221.001zM269.999 1219
c0 61.333 16.001 109 48.001 143s76.667 51 134 51c28.667 0 55.667 -5.16699 81 -15.5s49.666 -21.5 72.999 -33.5l65.5 -33.5c20.333 -10.333 39.5 -15.5 57.5 -15.5c45.333 0 67.666 26 66.999 78h103c0 -61.333 -16.167 -109.166 -48.5 -143.499
s-77.166 -51.5 -134.499 -51.5c-28.667 0 -55.5 5.16699 -80.5 15.5s-49.167 21.666 -72.5 33.999l-66 33.5c-20.667 10 -39.667 15 -57 15c-45.333 0 -68 -25.667 -68 -77h-102zM309 360c0 -35.333 7.50293 -67.666 22.5029 -96.999s34.833 -54.166 59.5 -74.499
s53.667 -36.333 87 -48s68.666 -17.5 105.999 -17.5c36.667 0 71.667 5.83301 105 17.5s62.333 27.667 87 48s44.5 45.166 59.5 74.499s22.5 61.666 22.5 96.999v324c0 35.333 -7.5 67.666 -22.5 96.999s-34.833 54.333 -59.5 75s-53.667 36.834 -87 48.501
s-68.333 17.5 -105 17.5s-71.834 -5.83301 -105.501 -17.5s-62.834 -27.834 -87.501 -48.501s-44.5 -45.667 -59.5 -75s-22.5 -61.666 -22.5 -96.999v-324z" />
    <glyph glyph-name="odieresis" unicode="&#xf6;" horiz-adv-x="1167" 
d="M115 522c0 79.333 9.49902 152.833 28.499 220.5s48 125.334 87 173.001s87.833 85.167 146.5 112.5s127.667 41 207 41s148.333 -13.667 207 -41s107.334 -64.833 146.001 -112.5s67.667 -105.334 87 -173.001s29 -141.167 29 -220.5
c0 -80.667 -9.66699 -154.334 -29 -221.001s-48.333 -124 -87 -172s-87.5 -85.667 -146.5 -113s-127.833 -41 -206.5 -41c-79.333 0 -148.333 13.667 -207 41s-107.5 65 -146.5 113s-68 105.333 -87 172s-28.5 140.334 -28.5 221.001zM308.999 360
c0 -35.333 7.50293 -67.666 22.5029 -96.999s34.833 -54.166 59.5 -74.499s53.667 -36.333 87 -48s68.666 -17.5 105.999 -17.5c36.667 0 71.667 5.83301 105 17.5s62.333 27.667 87 48s44.5 45.166 59.5 74.499s22.5 61.666 22.5 96.999v324
c0 35.333 -7.5 67.666 -22.5 96.999s-34.833 54.333 -59.5 75s-53.667 36.834 -87 48.501s-68.333 17.5 -105 17.5s-71.834 -5.83301 -105.501 -17.5s-62.834 -27.834 -87.501 -48.501s-44.5 -45.667 -59.5 -75s-22.5 -61.666 -22.5 -96.999v-324zM316.002 1212v181h180
v-181h-180zM676.002 1212v181h181v-181h-181z" />
    <glyph glyph-name="divide" unicode="&#xf7;" 
d="M92 449v147h1045v-147h-1045zM510 0v211h209v-211h-209zM510 834v210h209v-210h-209z" />
    <glyph glyph-name="oslash" unicode="&#xf8;" horiz-adv-x="1167" 
d="M115 522c0 79.333 9.5 152.834 28.5 220.501s48 125.334 87 173.001s87.833 85.167 146.5 112.5s127.667 41 207 41c34 0 66 -2.66699 96 -8s58.667 -13 86 -23l74 152l114 -55l-77 -160c60 -48 104.333 -110.833 133 -188.5s43 -165.834 43 -264.501
c0 -80.667 -9.66699 -154.334 -29 -221.001s-48.333 -124 -87 -172s-87.5 -85.667 -146.5 -113s-127.833 -41 -206.5 -41c-66.667 0 -127 9.66699 -181 29l-73 -149l-115 55l76 158c-60 48 -104.333 110.833 -133 188.5s-43 166.167 -43 265.5zM309 360.001
c0 -28.667 4.83496 -55.168 14.502 -79.501s22.5 -46.166 38.5 -65.499l336 686c-38 13.333 -76 20.333 -114 21c-36.667 0 -71.834 -5.83301 -105.501 -17.5s-62.834 -27.834 -87.501 -48.501s-44.5 -45.667 -59.5 -75s-22.5 -61.666 -22.5 -96.999v-324zM471.002 141
c34 -12 71.667 -17.999 113 -17.999c36.667 0 71.667 5.83301 105 17.5s62.333 27.667 87 48s44.5 45.166 59.5 74.499s22.5 61.666 22.5 96.999v324c0 27.333 -4.83301 53.333 -14.5 78s-22.5 46.334 -38.5 65.001z" />
    <glyph glyph-name="ugrave" unicode="&#xf9;" horiz-adv-x="1159" 
d="M162 348v695.999h184v-675c0 -75.333 14.667 -135.166 44 -179.499s83 -66.5 161 -66.5s139.833 29 185.5 87s68.5 132.667 68.5 224v610h184v-1044h-184v172c-28.667 -61.333 -67 -109.5 -115 -144.5s-111.333 -52.5 -190 -52.5c-48 0 -92.833 6.83301 -134.5 20.5
s-77.5 35.5 -107.5 65.5s-53.5 68.667 -70.5 116s-25.5 104.333 -25.5 171zM342 1423h215l162 -249h-160z" />
    <glyph glyph-name="uacute" unicode="&#xfa;" horiz-adv-x="1159" 
d="M162 348v695.999h184v-675c0 -75.333 14.667 -135.166 44 -179.499s83 -66.5 161 -66.5s139.833 29 185.5 87s68.5 132.667 68.5 224v610h184v-1044h-184v172c-28.667 -61.333 -67 -109.5 -115 -144.5s-111.333 -52.5 -190 -52.5c-48 0 -92.833 6.83301 -134.5 20.5
s-77.5 35.5 -107.5 65.5s-53.5 68.667 -70.5 116s-25.5 104.333 -25.5 171zM450 1174l162 249h215l-217 -249h-160z" />
    <glyph glyph-name="ucircumflex" unicode="&#xfb;" horiz-adv-x="1159" 
d="M162 348v695.999h184v-675c0 -75.333 14.667 -135.166 44 -179.499s83 -66.5 161 -66.5s139.833 29 185.5 87s68.5 132.667 68.5 224v610h184v-1044h-184v172c-28.667 -61.333 -67 -109.5 -115 -144.5s-111.333 -52.5 -190 -52.5c-48 0 -92.833 6.83301 -134.5 20.5
s-77.5 35.5 -107.5 65.5s-53.5 68.667 -70.5 116s-25.5 104.333 -25.5 171zM307 1174l170 249h211l170 -249h-160l-117 149l-117 -149h-157z" />
    <glyph glyph-name="udieresis" unicode="&#xfc;" horiz-adv-x="1159" 
d="M162 348v695.999h184v-675c0 -75.333 14.667 -135.166 44 -179.499s83 -66.5 161 -66.5s139.833 29 185.5 87s68.5 132.667 68.5 224v610h184v-1044h-184v172c-28.667 -61.333 -67 -109.5 -115 -144.5s-111.333 -52.5 -190 -52.5c-48 0 -92.833 6.83301 -134.5 20.5
s-77.5 35.5 -107.5 65.5s-53.5 68.667 -70.5 116s-25.5 104.333 -25.5 171zM309 1212v181h180v-181h-180zM669 1212v181h181v-181h-181z" />
    <glyph glyph-name="yacute" unicode="&#xfd;" horiz-adv-x="1067" 
d="M61 1044h199l272 -817h9l280 817h191l-512 -1392h-357v158h240l66 190zM430 1174l162 249h215l-217 -249h-160z" />
    <glyph glyph-name="thorn" unicode="&#xfe;" horiz-adv-x="1218" 
d="M170 -348v1741h184v-519c32.667 62.667 76.667 110.834 132 144.501s122.666 50.5 201.999 50.5c69.333 0 130 -14.333 182 -43s95.167 -67.5 129.5 -116.5s60 -107 77 -174s25.5 -138.167 25.5 -213.5c0 -76.667 -8.5 -148 -25.5 -214s-42.667 -123.667 -77 -173
s-77.333 -88.333 -129 -117s-112.5 -43 -182.5 -43c-79.333 0 -146.666 16.833 -201.999 50.5s-99.333 81.834 -132 144.501v-518h-184zM354 433.998c0 -90 24.667 -164.334 74 -223.001s120.333 -88 213 -88c78 0 141.833 21.833 191.5 65.5s74.5 100.834 74.5 171.501v324
c0 70.667 -24.833 128 -74.5 172s-113.5 66 -191.5 66c-92.667 0 -163.667 -29.5 -213 -88.5s-74 -133.5 -74 -223.5v-176z" />
    <glyph glyph-name="ydieresis" unicode="&#xff;" horiz-adv-x="1067" 
d="M61 1044h199l272 -817h9l280 817h191l-512 -1392h-357v158h240l66 190zM270 1212v181h180v-181h-180zM630 1212v181h181v-181h-181z" />
    <glyph glyph-name="OE" unicode="&#x152;" horiz-adv-x="2150" 
d="M125 696c0 109.333 11.667 208.669 35 298.002s59.166 165.833 107.499 229.5s110 112.834 185 147.501s165.167 52 270.5 52c82 0 154.333 -10.833 217 -32.5s118 -53.834 166 -96.501v99h924v-174h-730v-422h635v-174h-635v-449h730v-174h-924v98
c-48 -42 -103.333 -74 -166 -96s-135 -33 -217 -33c-105.333 0 -195.5 17.5 -270.5 52.5s-136.667 84.167 -185 147.5s-84.166 139.666 -107.499 228.999s-35 188.666 -35 297.999zM340 481.003c0 -53.333 9.83301 -100.833 29.5 -142.5s47 -77.5 82 -107.5
s75.667 -52.833 122 -68.5s96.166 -23.5 149.499 -23.5s103.166 7.83301 149.499 23.5s87 38.5 122 68.5s62.333 65.833 82 107.5s29.5 89.167 29.5 142.5v430c0 53.333 -9.83301 100.833 -29.5 142.5s-47 77.5 -82 107.5s-75.667 52.833 -122 68.5
s-96.166 23.5 -149.499 23.5s-103.166 -7.83301 -149.499 -23.5s-87 -38.5 -122 -68.5s-62.333 -65.833 -82 -107.5s-29.5 -89.167 -29.5 -142.5v-430z" />
    <glyph glyph-name="oe" unicode="&#x153;" horiz-adv-x="1855" 
d="M115 522c0 79.333 9.49512 152.832 28.4951 220.499s48 125.334 87 173.001s87.833 85.167 146.5 112.5s127.667 41 207 41c84.667 0 157.334 -15 218.001 -45s110.667 -72.333 150 -127c39.333 54.667 87.833 97 145.5 127s124.5 45 200.5 45
c70.667 0 134.167 -13 190.5 -39s103.333 -61.5 141 -106.5s66.334 -97.833 86.001 -158.5s29.5 -126 29.5 -196v-98h-703v-111c0 -38 7.16699 -71.667 21.5 -101s33.833 -54.166 58.5 -74.499s52.334 -35.666 83.001 -45.999s62.334 -15.5 95.001 -15.5
c65.333 0 122 16.667 170 50s75.333 86.333 82 159h185c-4 -56 -18.667 -105.833 -44 -149.5s-58.166 -80.834 -98.499 -111.501s-85.833 -54.334 -136.5 -71.001s-104 -25 -160 -25c-79.333 0 -147.833 14.667 -205.5 44s-105.834 70.666 -144.501 123.999
c-39.333 -52 -88.666 -93 -147.999 -123s-131.333 -45 -216 -45c-79.333 0 -148.333 13.667 -207 41s-107.5 65 -146.5 113s-68 105.333 -87 172s-28.5 140.334 -28.5 221.001zM308.995 359.999c0 -35.333 7.50293 -67.666 22.5029 -96.999s34.833 -54.166 59.5 -74.499
s53.667 -36.333 87 -48s68.666 -17.5 105.999 -17.5c36.667 0 71.667 5.83301 105 17.5s62.333 27.667 87 48s44.5 45.166 59.5 74.499s22.5 61.666 22.5 96.999v324c0 35.333 -7.5 67.666 -22.5 96.999s-34.833 54.333 -59.5 75s-53.667 36.834 -87 48.501
s-68.333 17.5 -105 17.5s-71.834 -5.83301 -105.501 -17.5s-62.834 -27.834 -87.501 -48.501s-44.5 -45.667 -59.5 -75s-22.5 -61.666 -22.5 -96.999v-324zM1042 617.999h512.003v58c0 38 -6.83301 72.333 -20.5 103s-32.334 56.667 -56.001 78s-50.834 37.5 -81.501 48.5
s-63.334 16.5 -98.001 16.5c-34 0 -66.333 -5.5 -97 -16.5s-58 -27.167 -82 -48.5s-42.833 -47.333 -56.5 -78s-20.5 -65 -20.5 -103v-58z" />
    <glyph glyph-name="Ydieresis" unicode="&#x178;" horiz-adv-x="1206" 
d="M43 1393h213l348 -648l354 648h207l-465 -840v-553h-194v555zM336 1568v181h180v-181h-180zM696 1568v181h181v-181h-181z" />
    <glyph glyph-name="circumflex" unicode="&#x2c6;" horiz-adv-x="614" 
d="M31 1174l170 249h211l170 -249h-160l-117 149l-117 -149h-157z" />
    <glyph glyph-name="tilde" unicode="&#x2dc;" horiz-adv-x="614" 
d="M-6 1219c0 61.333 16.001 109 48.001 143s76.667 51 134 51c28.667 0 55.667 -5.16699 81 -15.5s49.666 -21.5 72.999 -33.5l65.5 -33.5c20.333 -10.333 39.5 -15.5 57.5 -15.5c45.333 0 67.666 26 66.999 78h103c0 -61.333 -16.167 -109.166 -48.5 -143.499
s-77.166 -51.5 -134.499 -51.5c-28.667 0 -55.5 5.16699 -80.5 15.5s-49.167 21.666 -72.5 33.999l-66 33.5c-20.667 10 -39.667 15 -57 15c-45.333 0 -68 -25.667 -68 -77h-102z" />
    <glyph glyph-name="uni2000" unicode="&#x2000;" horiz-adv-x="944" 
 />
    <glyph glyph-name="uni2001" unicode="&#x2001;" horiz-adv-x="1888" 
 />
    <glyph glyph-name="uni2002" unicode="&#x2002;" horiz-adv-x="944" 
 />
    <glyph glyph-name="uni2003" unicode="&#x2003;" horiz-adv-x="1888" 
 />
    <glyph glyph-name="uni2004" unicode="&#x2004;" horiz-adv-x="629" 
 />
    <glyph glyph-name="uni2005" unicode="&#x2005;" horiz-adv-x="472" 
 />
    <glyph glyph-name="uni2006" unicode="&#x2006;" horiz-adv-x="314" 
 />
    <glyph glyph-name="uni2007" unicode="&#x2007;" horiz-adv-x="314" 
 />
    <glyph glyph-name="uni2008" unicode="&#x2008;" horiz-adv-x="236" 
 />
    <glyph glyph-name="uni2009" unicode="&#x2009;" horiz-adv-x="377" 
 />
    <glyph glyph-name="uni200A" unicode="&#x200a;" horiz-adv-x="104" 
 />
    <glyph glyph-name="uni2010" unicode="&#x2010;" horiz-adv-x="884" 
d="M156 471v168h573v-168h-573z" />
    <glyph glyph-name="uni2011" unicode="&#x2011;" horiz-adv-x="884" 
d="M156 471v168h573v-168h-573z" />
    <glyph glyph-name="figuredash" unicode="&#x2012;" horiz-adv-x="884" 
d="M156 471v168h573v-168h-573z" />
    <glyph glyph-name="endash" unicode="&#x2013;" horiz-adv-x="1273" 
d="M156 471v168h962v-168h-962z" />
    <glyph glyph-name="emdash" unicode="&#x2014;" horiz-adv-x="2318" 
d="M197 471v168h1925v-168h-1925z" />
    <glyph glyph-name="quoteleft" unicode="&#x2018;" horiz-adv-x="526" 
d="M147 942v225l127 226h99l-121 -226h121v-225h-226z" />
    <glyph glyph-name="quoteright" unicode="&#x2019;" horiz-adv-x="512" 
d="M158 942l121 225h-121v226h225v-226l-127 -225h-98z" />
    <glyph glyph-name="quotesinglbase" unicode="&#x201a;" horiz-adv-x="536" 
d="M156 0v225h225v-225l-127 -225h-98l120 225h-120z" />
    <glyph glyph-name="quotedblleft" unicode="&#x201c;" horiz-adv-x="915" 
d="M147 942v225l127 226h99l-121 -226h121v-225h-226zM537 942v225l127 226h98l-121 -226h121v-225h-225z" />
    <glyph glyph-name="quotedblright" unicode="&#x201d;" horiz-adv-x="901" 
d="M158 942l121 225h-121v226h225v-226l-127 -225h-98zM547 942l121 225h-121v226h225v-226l-127 -225h-98z" />
    <glyph glyph-name="quotedblbase" unicode="&#x201e;" horiz-adv-x="925" 
d="M156 0v225h225v-225l-127 -225h-98l120 225h-120zM545 0v225h225v-225l-127 -225h-98l121 225h-121z" />
    <glyph glyph-name="bullet" unicode="&#x2022;" horiz-adv-x="1069" 
d="M188 696c0 48 8.99805 93.167 26.998 135.5s42.667 79.166 74 110.499s68.166 56.166 110.499 74.499s87.5 27.5 135.5 27.5s93 -9.16699 135 -27.5s78.667 -43.166 110 -74.499s56.333 -68.166 75 -110.499s28 -87.5 28 -135.5s-9.33301 -93 -28 -135
s-43.667 -78.833 -75 -110.5s-68.166 -56.334 -110.499 -74.001s-87.166 -26.5 -134.499 -26.5c-48 0 -93.167 8.83301 -135.5 26.5s-79.166 42.334 -110.499 74.001s-56 68.5 -74 110.5s-27 87 -27 135z" />
    <glyph glyph-name="ellipsis" unicode="&#x2026;" horiz-adv-x="1888" 
d="M156 0v225h225v-225h-225zM831 0v225h226v-225h-226zM1507 0v225h226v-225h-226z" />
    <glyph glyph-name="uni202F" unicode="&#x202f;" horiz-adv-x="377" 
 />
    <glyph glyph-name="guilsinglleft" unicode="&#x2039;" horiz-adv-x="634" 
d="M119 526l219 381h164l-199 -381l199 -381h-164z" />
    <glyph glyph-name="guilsinglright" unicode="&#x203a;" horiz-adv-x="634" 
d="M133 145l199 381l-199 381h164l219 -381l-219 -381h-164z" />
    <glyph glyph-name="uni205F" unicode="&#x205f;" horiz-adv-x="472" 
 />
    <glyph glyph-name="Euro" unicode="&#x20ac;" 
d="M39 516l41.001 121h106v125h-147l41 121h115c8 79.333 23.167 152 45.5 218s54 122.833 95 170.5s92.333 84.834 154 111.501s135.5 40 221.5 40c135.333 0 240.166 -35.5 314.499 -106.5s116.166 -167.833 125.499 -290.5h-184c-9.33301 84.667 -36 145.5 -80 182.5
s-109 55.5 -195 55.5c-102.667 0 -178.5 -33.167 -227.5 -99.5s-73.5 -150.833 -73.5 -253.5v-28h467l-41 -121h-426v-125h385l-41 -121h-344v-35c0 -52 7.16699 -99.5 21.5 -142.5s34.833 -79.833 61.5 -110.5s58.834 -54.834 96.501 -72.501s78.834 -26.5 123.501 -26.5
c86 0 150.833 19.167 194.5 57.5s70.5 104.5 80.5 198.5h184c-9.33301 -130 -55 -231.833 -137 -305.5s-188.667 -110.5 -320 -110.5c-78 0 -146.333 13 -205 39s-108.334 62.833 -149.001 110.5s-73 105 -97 172s-40.667 142.167 -50 225.5h-156z" />
    <glyph glyph-name="trademark" unicode="&#x2122;" horiz-adv-x="1781" 
d="M141 1264v129h561v-129h-208v-568h-144v568h-209zM840 696v697h223l164 -488l164 488h219v-697h-144v504l-176 -504h-133l-174 504v-504h-143z" />
    <glyph glyph-name="uniE000" unicode="&#xe000;" horiz-adv-x="1044" 
d="M0 0v1044h1044v-1044h-1044z" />
    <glyph glyph-name="nonmarkingreturn" horiz-adv-x="0" 
 />
  </font>
</defs>
</svg>
